<svg width="183" height="28" viewBox="0 0 183 28" fill="none" xmlns="http://www.w3.org/2000/svg">
<path d="M7.77832 16.6426C7.77832 16.1445 7.60254 15.7637 7.25098 15.5C6.89941 15.2305 6.2666 14.9492 5.35254 14.6562C4.43848 14.3574 3.71484 14.0645 3.18164 13.7773C1.72852 12.9922 1.00195 11.9346 1.00195 10.6045C1.00195 9.91309 1.19531 9.29785 1.58203 8.75879C1.97461 8.21387 2.53418 7.78906 3.26074 7.48438C3.99316 7.17969 4.81348 7.02734 5.72168 7.02734C6.63574 7.02734 7.4502 7.19434 8.16504 7.52832C8.87988 7.85645 9.43359 8.32227 9.82617 8.92578C10.2246 9.5293 10.4238 10.2148 10.4238 10.9824H7.78711C7.78711 10.3965 7.60254 9.94238 7.2334 9.62012C6.86426 9.29199 6.3457 9.12793 5.67773 9.12793C5.0332 9.12793 4.53223 9.26562 4.1748 9.54102C3.81738 9.81055 3.63867 10.168 3.63867 10.6133C3.63867 11.0293 3.84668 11.3779 4.2627 11.6592C4.68457 11.9404 5.30273 12.2041 6.11719 12.4502C7.61719 12.9014 8.70996 13.4609 9.39551 14.1289C10.0811 14.7969 10.4238 15.6289 10.4238 16.625C10.4238 17.7324 10.0049 18.6025 9.16699 19.2354C8.3291 19.8623 7.20117 20.1758 5.7832 20.1758C4.79883 20.1758 3.90234 19.9971 3.09375 19.6396C2.28516 19.2764 1.66699 18.7812 1.23926 18.1543C0.817383 17.5273 0.606445 16.8008 0.606445 15.9746H3.25195C3.25195 17.3867 4.0957 18.0928 5.7832 18.0928C6.41016 18.0928 6.89941 17.9668 7.25098 17.7148C7.60254 17.457 7.77832 17.0996 7.77832 16.6426ZM16.6768 20.1758C15.2822 20.1758 14.1455 19.748 13.2666 18.8926C12.3936 18.0371 11.957 16.8975 11.957 15.4736V15.2275C11.957 14.2725 12.1416 13.4199 12.5107 12.6699C12.8799 11.9141 13.4014 11.334 14.0752 10.9297C14.7549 10.5195 15.5283 10.3145 16.3955 10.3145C17.6963 10.3145 18.7188 10.7246 19.4629 11.5449C20.2129 12.3652 20.5879 13.5283 20.5879 15.0342V16.0713H14.5322C14.6143 16.6924 14.8604 17.1904 15.2705 17.5654C15.6865 17.9404 16.2109 18.1279 16.8438 18.1279C17.8223 18.1279 18.5869 17.7734 19.1377 17.0645L20.3857 18.4619C20.0049 19.001 19.4893 19.4229 18.8389 19.7275C18.1885 20.0264 17.4678 20.1758 16.6768 20.1758ZM16.3867 12.3711C15.8828 12.3711 15.4727 12.541 15.1562 12.8809C14.8457 13.2207 14.6465 13.707 14.5586 14.3398H18.0918V14.1377C18.0801 13.5752 17.9277 13.1416 17.6348 12.8369C17.3418 12.5264 16.9258 12.3711 16.3867 12.3711ZM26.665 20.1758C25.2705 20.1758 24.1338 19.748 23.2549 18.8926C22.3818 18.0371 21.9453 16.8975 21.9453 15.4736V15.2275C21.9453 14.2725 22.1299 13.4199 22.499 12.6699C22.8682 11.9141 23.3896 11.334 24.0635 10.9297C24.7432 10.5195 25.5166 10.3145 26.3838 10.3145C27.6846 10.3145 28.707 10.7246 29.4512 11.5449C30.2012 12.3652 30.5762 13.5283 30.5762 15.0342V16.0713H24.5205C24.6025 16.6924 24.8486 17.1904 25.2588 17.5654C25.6748 17.9404 26.1992 18.1279 26.832 18.1279C27.8105 18.1279 28.5752 17.7734 29.126 17.0645L30.374 18.4619C29.9932 19.001 29.4775 19.4229 28.8271 19.7275C28.1768 20.0264 27.4561 20.1758 26.665 20.1758ZM26.375 12.3711C25.8711 12.3711 25.4609 12.541 25.1445 12.8809C24.834 13.2207 24.6348 13.707 24.5469 14.3398H28.0801V14.1377C28.0684 13.5752 27.916 13.1416 27.623 12.8369C27.3301 12.5264 26.9141 12.3711 26.375 12.3711ZM40.0498 8.15234V10.4902H41.6758V12.3535H40.0498V17.0996C40.0498 17.4512 40.1172 17.7031 40.252 17.8555C40.3867 18.0078 40.6445 18.084 41.0254 18.084C41.3066 18.084 41.5557 18.0635 41.7725 18.0225V19.9473C41.2744 20.0996 40.7617 20.1758 40.2344 20.1758C38.4531 20.1758 37.5449 19.2764 37.5098 17.4775V12.3535H36.1211V10.4902H37.5098V8.15234H40.0498ZM45.8193 11.5273C46.4932 10.7188 47.3398 10.3145 48.3594 10.3145C50.4219 10.3145 51.4678 11.5127 51.4971 13.9092V20H48.957V13.9795C48.957 13.4346 48.8398 13.0332 48.6055 12.7754C48.3711 12.5117 47.9814 12.3799 47.4365 12.3799C46.6924 12.3799 46.1533 12.667 45.8193 13.2412V20H43.2793V6.5H45.8193V11.5273ZM58.04 20.1758C56.6455 20.1758 55.5088 19.748 54.6299 18.8926C53.7568 18.0371 53.3203 16.8975 53.3203 15.4736V15.2275C53.3203 14.2725 53.5049 13.4199 53.874 12.6699C54.2432 11.9141 54.7646 11.334 55.4385 10.9297C56.1182 10.5195 56.8916 10.3145 57.7588 10.3145C59.0596 10.3145 60.082 10.7246 60.8262 11.5449C61.5762 12.3652 61.9512 13.5283 61.9512 15.0342V16.0713H55.8955C55.9775 16.6924 56.2236 17.1904 56.6338 17.5654C57.0498 17.9404 57.5742 18.1279 58.207 18.1279C59.1855 18.1279 59.9502 17.7734 60.501 17.0645L61.749 18.4619C61.3682 19.001 60.8525 19.4229 60.2021 19.7275C59.5518 20.0264 58.8311 20.1758 58.04 20.1758ZM57.75 12.3711C57.2461 12.3711 56.8359 12.541 56.5195 12.8809C56.209 13.2207 56.0098 13.707 55.9219 14.3398H59.4551V14.1377C59.4434 13.5752 59.291 13.1416 58.998 12.8369C58.7051 12.5264 58.2891 12.3711 57.75 12.3711ZM72.3389 18.1279C72.8076 18.1279 73.1885 17.999 73.4814 17.7412C73.7744 17.4834 73.9268 17.1406 73.9385 16.7129H76.3203C76.3145 17.3574 76.1387 17.9492 75.793 18.4883C75.4473 19.0215 74.9727 19.4375 74.3691 19.7363C73.7715 20.0293 73.1094 20.1758 72.3828 20.1758C71.0234 20.1758 69.9512 19.7451 69.166 18.8838C68.3809 18.0166 67.9883 16.8213 67.9883 15.2979V15.1309C67.9883 13.666 68.3779 12.4971 69.1572 11.624C69.9365 10.751 71.0059 10.3145 72.3652 10.3145C73.5547 10.3145 74.5068 10.6543 75.2217 11.334C75.9424 12.0078 76.3086 12.9072 76.3203 14.0322H73.9385C73.9268 13.54 73.7744 13.1416 73.4814 12.8369C73.1885 12.5264 72.8018 12.3711 72.3213 12.3711C71.7295 12.3711 71.2812 12.5879 70.9766 13.0215C70.6777 13.4492 70.5283 14.1465 70.5283 15.1133V15.377C70.5283 16.3555 70.6777 17.0586 70.9766 17.4863C71.2754 17.9141 71.7295 18.1279 72.3389 18.1279ZM83.5312 20C83.4141 19.7715 83.3291 19.4873 83.2764 19.1475C82.6611 19.833 81.8613 20.1758 80.877 20.1758C79.9453 20.1758 79.1719 19.9062 78.5566 19.3672C77.9473 18.8281 77.6426 18.1484 77.6426 17.3281C77.6426 16.3203 78.0146 15.5469 78.7588 15.0078C79.5088 14.4688 80.5898 14.1963 82.002 14.1904H83.1709V13.6455C83.1709 13.2061 83.0566 12.8545 82.8281 12.5908C82.6055 12.3271 82.251 12.1953 81.7646 12.1953C81.3369 12.1953 81 12.2979 80.7539 12.5029C80.5137 12.708 80.3936 12.9893 80.3936 13.3467H77.8535C77.8535 12.7959 78.0234 12.2861 78.3633 11.8174C78.7031 11.3486 79.1836 10.9824 79.8047 10.7188C80.4258 10.4492 81.123 10.3145 81.8965 10.3145C83.0684 10.3145 83.9971 10.6104 84.6826 11.2021C85.374 11.7881 85.7197 12.6143 85.7197 13.6807V17.8027C85.7256 18.7051 85.8516 19.3877 86.0977 19.8506V20H83.5312ZM81.4307 18.2334C81.8057 18.2334 82.1514 18.1514 82.4678 17.9873C82.7842 17.8174 83.0186 17.5918 83.1709 17.3105V15.6758H82.2217C80.9502 15.6758 80.2734 16.1152 80.1914 16.9941L80.1826 17.1436C80.1826 17.46 80.2939 17.7207 80.5166 17.9258C80.7393 18.1309 81.0439 18.2334 81.4307 18.2334ZM90.3027 10.4902L90.3818 11.5537C91.0557 10.7275 91.9668 10.3145 93.1152 10.3145C94.3398 10.3145 95.1807 10.7979 95.6377 11.7646C96.3057 10.7979 97.2578 10.3145 98.4941 10.3145C99.5254 10.3145 100.293 10.6162 100.797 11.2197C101.301 11.8174 101.553 12.7197 101.553 13.9268V20H99.0039V13.9355C99.0039 13.3965 98.8984 13.0039 98.6875 12.7578C98.4766 12.5059 98.1045 12.3799 97.5713 12.3799C96.8096 12.3799 96.2822 12.7432 95.9893 13.4697L95.998 20H93.458V13.9443C93.458 13.3936 93.3496 12.9951 93.1328 12.749C92.916 12.5029 92.5469 12.3799 92.0254 12.3799C91.3047 12.3799 90.7832 12.6787 90.4609 13.2764V20H87.9209V10.4902H90.3027ZM112.323 15.333C112.323 16.7979 111.989 17.9727 111.321 18.8574C110.659 19.7363 109.763 20.1758 108.632 20.1758C107.671 20.1758 106.895 19.8418 106.303 19.1738V23.6562H103.763V10.4902H106.118L106.206 11.4219C106.821 10.6836 107.624 10.3145 108.614 10.3145C109.786 10.3145 110.697 10.748 111.348 11.6152C111.998 12.4824 112.323 13.6777 112.323 15.2012V15.333ZM109.783 15.1484C109.783 14.2637 109.625 13.5811 109.309 13.1006C108.998 12.6201 108.544 12.3799 107.946 12.3799C107.149 12.3799 106.602 12.6846 106.303 13.2939V17.1875C106.613 17.8145 107.167 18.1279 107.964 18.1279C109.177 18.1279 109.783 17.1348 109.783 15.1484ZM119.666 20C119.549 19.7715 119.464 19.4873 119.411 19.1475C118.796 19.833 117.996 20.1758 117.012 20.1758C116.08 20.1758 115.307 19.9062 114.691 19.3672C114.082 18.8281 113.777 18.1484 113.777 17.3281C113.777 16.3203 114.149 15.5469 114.894 15.0078C115.644 14.4688 116.725 14.1963 118.137 14.1904H119.306V13.6455C119.306 13.2061 119.191 12.8545 118.963 12.5908C118.74 12.3271 118.386 12.1953 117.899 12.1953C117.472 12.1953 117.135 12.2979 116.889 12.5029C116.648 12.708 116.528 12.9893 116.528 13.3467H113.988C113.988 12.7959 114.158 12.2861 114.498 11.8174C114.838 11.3486 115.318 10.9824 115.939 10.7188C116.561 10.4492 117.258 10.3145 118.031 10.3145C119.203 10.3145 120.132 10.6104 120.817 11.2021C121.509 11.7881 121.854 12.6143 121.854 13.6807V17.8027C121.86 18.7051 121.986 19.3877 122.232 19.8506V20H119.666ZM117.565 18.2334C117.94 18.2334 118.286 18.1514 118.603 17.9873C118.919 17.8174 119.153 17.5918 119.306 17.3105V15.6758H118.356C117.085 15.6758 116.408 16.1152 116.326 16.9941L116.317 17.1436C116.317 17.46 116.429 17.7207 116.651 17.9258C116.874 18.1309 117.179 18.2334 117.565 18.2334ZM126.736 20H124.188V10.4902H126.736V20ZM124.038 8.0293C124.038 7.64844 124.164 7.33496 124.416 7.08887C124.674 6.84277 125.022 6.71973 125.462 6.71973C125.896 6.71973 126.241 6.84277 126.499 7.08887C126.757 7.33496 126.886 7.64844 126.886 8.0293C126.886 8.41602 126.754 8.73242 126.49 8.97852C126.232 9.22461 125.89 9.34766 125.462 9.34766C125.034 9.34766 124.688 9.22461 124.425 8.97852C124.167 8.73242 124.038 8.41602 124.038 8.0293ZM128.718 15.1748C128.718 13.7158 129.063 12.541 129.755 11.6504C130.452 10.7598 131.39 10.3145 132.567 10.3145C133.61 10.3145 134.422 10.6719 135.002 11.3867L135.107 10.4902H137.41V19.6836C137.41 20.5156 137.22 21.2393 136.839 21.8545C136.464 22.4697 135.934 22.9385 135.248 23.2607C134.562 23.583 133.76 23.7441 132.84 23.7441C132.143 23.7441 131.463 23.6035 130.801 23.3223C130.139 23.0469 129.638 22.6895 129.298 22.25L130.423 20.7031C131.056 21.4121 131.823 21.7666 132.726 21.7666C133.399 21.7666 133.924 21.585 134.299 21.2217C134.674 20.8643 134.861 20.3545 134.861 19.6924V19.1826C134.275 19.8447 133.505 20.1758 132.55 20.1758C131.407 20.1758 130.481 19.7305 129.772 18.8398C129.069 17.9434 128.718 16.7568 128.718 15.2803V15.1748ZM131.258 15.3594C131.258 16.2207 131.431 16.8975 131.776 17.3896C132.122 17.876 132.597 18.1191 133.2 18.1191C133.974 18.1191 134.527 17.8291 134.861 17.249V13.25C134.521 12.6699 133.974 12.3799 133.218 12.3799C132.608 12.3799 132.128 12.6289 131.776 13.127C131.431 13.625 131.258 14.3691 131.258 15.3594ZM141.958 10.4902L142.037 11.5889C142.717 10.7393 143.628 10.3145 144.771 10.3145C145.778 10.3145 146.528 10.6104 147.021 11.2021C147.513 11.7939 147.765 12.6787 147.776 13.8564V20H145.236V13.918C145.236 13.3789 145.119 12.9893 144.885 12.749C144.65 12.5029 144.261 12.3799 143.716 12.3799C143.001 12.3799 142.465 12.6846 142.107 13.2939V20H139.567V10.4902H141.958Z" fill="black"/>
<path fill-rule="evenodd" clip-rule="evenodd" d="M169 25.6667C175.443 25.6667 180.667 20.4434 180.667 14C180.667 7.55672 175.443 2.33337 169 2.33337C162.557 2.33337 157.333 7.55672 157.333 14C157.333 20.4434 162.557 25.6667 169 25.6667ZM168.175 8.99168L172.017 12.8334H162V15.1667H172.017L168.175 19.0084L169.825 20.6583L176.483 14.0001L169.825 7.34176L168.175 8.99168Z" fill="black"/>
</svg>
