<svg width="365" height="30" viewBox="0 0 365 30" fill="none" xmlns="http://www.w3.org/2000/svg">
<g clip-path="url(#clip0_0_162)">
<path d="M14 27.8333C21.0877 27.8333 26.8334 22.0876 26.8334 15C26.8334 7.9123 21.0877 2.16663 14 2.16663C6.91237 2.16663 1.16669 7.9123 1.16669 15C1.16669 22.0876 6.91237 27.8333 14 27.8333Z" stroke="black" stroke-width="2.33333"/>
<path d="M13.104 22H15.232V12.1066H13.104V22ZM13.0667 10.4826H15.2693V8.37329H13.0667V10.4826Z" fill="black"/>
</g>
<path d="M50.8984 17.9395C50.7402 19.293 50.2393 20.3389 49.3955 21.0771C48.5576 21.8096 47.4414 22.1758 46.0469 22.1758C44.5352 22.1758 43.3223 21.6338 42.4082 20.5498C41.5 19.4658 41.0459 18.0156 41.0459 16.1992V14.9688C41.0459 13.7793 41.2568 12.7334 41.6787 11.8311C42.1064 10.9287 42.71 10.2373 43.4893 9.75684C44.2686 9.27051 45.1709 9.02734 46.1963 9.02734C47.5557 9.02734 48.6455 9.4082 49.4658 10.1699C50.2861 10.9258 50.7637 11.9746 50.8984 13.3164H49.2021C49.0557 12.2969 48.7363 11.5586 48.2441 11.1016C47.7578 10.6445 47.0752 10.416 46.1963 10.416C45.1182 10.416 44.2715 10.8145 43.6562 11.6113C43.0469 12.4082 42.7422 13.542 42.7422 15.0127V16.252C42.7422 17.6406 43.0322 18.7451 43.6123 19.5654C44.1924 20.3857 45.0039 20.7959 46.0469 20.7959C46.9844 20.7959 47.7021 20.585 48.2002 20.1631C48.7041 19.7354 49.0381 18.9941 49.2021 17.9395H50.8984ZM52.7744 17.1572C52.7744 16.2256 52.9561 15.3877 53.3193 14.6436C53.6885 13.8994 54.1982 13.3252 54.8486 12.9209C55.5049 12.5166 56.252 12.3145 57.0898 12.3145C58.3848 12.3145 59.4307 12.7627 60.2275 13.6592C61.0303 14.5557 61.4316 15.748 61.4316 17.2363V17.3506C61.4316 18.2764 61.2529 19.1084 60.8955 19.8467C60.5439 20.5791 60.0371 21.1504 59.375 21.5605C58.7188 21.9707 57.9629 22.1758 57.1074 22.1758C55.8184 22.1758 54.7725 21.7275 53.9697 20.8311C53.1729 19.9346 52.7744 18.748 52.7744 17.2715V17.1572ZM54.4092 17.3506C54.4092 18.4053 54.6523 19.252 55.1387 19.8906C55.6309 20.5293 56.2871 20.8486 57.1074 20.8486C57.9336 20.8486 58.5898 20.5264 59.0762 19.8818C59.5625 19.2314 59.8057 18.3232 59.8057 17.1572C59.8057 16.1143 59.5566 15.2705 59.0586 14.626C58.5664 13.9756 57.9102 13.6504 57.0898 13.6504C56.2871 13.6504 55.6396 13.9697 55.1475 14.6084C54.6553 15.2471 54.4092 16.1611 54.4092 17.3506ZM65.25 12.4902L65.2939 13.5449C65.9912 12.7246 66.9316 12.3145 68.1152 12.3145C69.4453 12.3145 70.3506 12.8242 70.8311 13.8438C71.1475 13.3867 71.5576 13.0176 72.0615 12.7363C72.5713 12.4551 73.1719 12.3145 73.8633 12.3145C75.9492 12.3145 77.0098 13.4189 77.0449 15.6279V22H75.4189V15.7246C75.4189 15.0449 75.2637 14.5381 74.9531 14.2041C74.6426 13.8643 74.1211 13.6943 73.3887 13.6943C72.7852 13.6943 72.2842 13.876 71.8857 14.2393C71.4873 14.5967 71.2559 15.0801 71.1914 15.6895V22H69.5566V15.7686C69.5566 14.3857 68.8799 13.6943 67.5264 13.6943C66.46 13.6943 65.7305 14.1484 65.3379 15.0566V22H63.7119V12.4902H65.25ZM81.2852 12.4902L81.3291 13.5449C82.0264 12.7246 82.9668 12.3145 84.1504 12.3145C85.4805 12.3145 86.3857 12.8242 86.8662 13.8438C87.1826 13.3867 87.5928 13.0176 88.0967 12.7363C88.6064 12.4551 89.207 12.3145 89.8984 12.3145C91.9844 12.3145 93.0449 13.4189 93.0801 15.6279V22H91.4541V15.7246C91.4541 15.0449 91.2988 14.5381 90.9883 14.2041C90.6777 13.8643 90.1562 13.6943 89.4238 13.6943C88.8203 13.6943 88.3193 13.876 87.9209 14.2393C87.5225 14.5967 87.291 15.0801 87.2266 15.6895V22H85.5918V15.7686C85.5918 14.3857 84.915 13.6943 83.5615 13.6943C82.4951 13.6943 81.7656 14.1484 81.373 15.0566V22H79.7471V12.4902H81.2852ZM97.5576 22H95.9316V12.4902H97.5576V22ZM95.7998 9.96777C95.7998 9.7041 95.8789 9.48145 96.0371 9.2998C96.2012 9.11816 96.4414 9.02734 96.7578 9.02734C97.0742 9.02734 97.3145 9.11816 97.4785 9.2998C97.6426 9.48145 97.7246 9.7041 97.7246 9.96777C97.7246 10.2314 97.6426 10.4512 97.4785 10.627C97.3145 10.8027 97.0742 10.8906 96.7578 10.8906C96.4414 10.8906 96.2012 10.8027 96.0371 10.627C95.8789 10.4512 95.7998 10.2314 95.7998 9.96777ZM105.955 19.4775C105.955 19.0381 105.788 18.6982 105.454 18.458C105.126 18.2119 104.549 18.001 103.723 17.8252C102.902 17.6494 102.249 17.4385 101.763 17.1924C101.282 16.9463 100.925 16.6533 100.69 16.3135C100.462 15.9736 100.348 15.5693 100.348 15.1006C100.348 14.3213 100.676 13.6621 101.332 13.123C101.994 12.584 102.838 12.3145 103.863 12.3145C104.941 12.3145 105.814 12.5928 106.482 13.1494C107.156 13.7061 107.493 14.418 107.493 15.2852H105.858C105.858 14.8398 105.668 14.4561 105.287 14.1338C104.912 13.8115 104.438 13.6504 103.863 13.6504C103.271 13.6504 102.809 13.7793 102.475 14.0371C102.141 14.2949 101.974 14.6318 101.974 15.0479C101.974 15.4404 102.129 15.7363 102.439 15.9355C102.75 16.1348 103.31 16.3252 104.118 16.5068C104.933 16.6885 105.592 16.9053 106.096 17.1572C106.6 17.4092 106.972 17.7139 107.212 18.0713C107.458 18.4229 107.581 18.8535 107.581 19.3633C107.581 20.2129 107.241 20.8955 106.562 21.4111C105.882 21.9209 105 22.1758 103.916 22.1758C103.154 22.1758 102.48 22.041 101.895 21.7715C101.309 21.502 100.849 21.127 100.515 20.6465C100.187 20.1602 100.022 19.6357 100.022 19.0732H101.648C101.678 19.6182 101.895 20.0518 102.299 20.374C102.709 20.6904 103.248 20.8486 103.916 20.8486C104.531 20.8486 105.023 20.7256 105.393 20.4795C105.768 20.2275 105.955 19.8936 105.955 19.4775ZM115.486 19.4775C115.486 19.0381 115.319 18.6982 114.985 18.458C114.657 18.2119 114.08 18.001 113.254 17.8252C112.434 17.6494 111.78 17.4385 111.294 17.1924C110.813 16.9463 110.456 16.6533 110.222 16.3135C109.993 15.9736 109.879 15.5693 109.879 15.1006C109.879 14.3213 110.207 13.6621 110.863 13.123C111.525 12.584 112.369 12.3145 113.395 12.3145C114.473 12.3145 115.346 12.5928 116.014 13.1494C116.688 13.7061 117.024 14.418 117.024 15.2852H115.39C115.39 14.8398 115.199 14.4561 114.818 14.1338C114.443 13.8115 113.969 13.6504 113.395 13.6504C112.803 13.6504 112.34 13.7793 112.006 14.0371C111.672 14.2949 111.505 14.6318 111.505 15.0479C111.505 15.4404 111.66 15.7363 111.971 15.9355C112.281 16.1348 112.841 16.3252 113.649 16.5068C114.464 16.6885 115.123 16.9053 115.627 17.1572C116.131 17.4092 116.503 17.7139 116.743 18.0713C116.989 18.4229 117.112 18.8535 117.112 19.3633C117.112 20.2129 116.772 20.8955 116.093 21.4111C115.413 21.9209 114.531 22.1758 113.447 22.1758C112.686 22.1758 112.012 22.041 111.426 21.7715C110.84 21.502 110.38 21.127 110.046 20.6465C109.718 20.1602 109.554 19.6357 109.554 19.0732H111.18C111.209 19.6182 111.426 20.0518 111.83 20.374C112.24 20.6904 112.779 20.8486 113.447 20.8486C114.062 20.8486 114.555 20.7256 114.924 20.4795C115.299 20.2275 115.486 19.8936 115.486 19.4775ZM121.247 22H119.621V12.4902H121.247V22ZM119.489 9.96777C119.489 9.7041 119.568 9.48145 119.727 9.2998C119.891 9.11816 120.131 9.02734 120.447 9.02734C120.764 9.02734 121.004 9.11816 121.168 9.2998C121.332 9.48145 121.414 9.7041 121.414 9.96777C121.414 10.2314 121.332 10.4512 121.168 10.627C121.004 10.8027 120.764 10.8906 120.447 10.8906C120.131 10.8906 119.891 10.8027 119.727 10.627C119.568 10.4512 119.489 10.2314 119.489 9.96777ZM123.677 17.1572C123.677 16.2256 123.858 15.3877 124.222 14.6436C124.591 13.8994 125.101 13.3252 125.751 12.9209C126.407 12.5166 127.154 12.3145 127.992 12.3145C129.287 12.3145 130.333 12.7627 131.13 13.6592C131.933 14.5557 132.334 15.748 132.334 17.2363V17.3506C132.334 18.2764 132.155 19.1084 131.798 19.8467C131.446 20.5791 130.939 21.1504 130.277 21.5605C129.621 21.9707 128.865 22.1758 128.01 22.1758C126.721 22.1758 125.675 21.7275 124.872 20.8311C124.075 19.9346 123.677 18.748 123.677 17.2715V17.1572ZM125.312 17.3506C125.312 18.4053 125.555 19.252 126.041 19.8906C126.533 20.5293 127.189 20.8486 128.01 20.8486C128.836 20.8486 129.492 20.5264 129.979 19.8818C130.465 19.2314 130.708 18.3232 130.708 17.1572C130.708 16.1143 130.459 15.2705 129.961 14.626C129.469 13.9756 128.812 13.6504 127.992 13.6504C127.189 13.6504 126.542 13.9697 126.05 14.6084C125.558 15.2471 125.312 16.1611 125.312 17.3506ZM136.161 12.4902L136.214 13.6855C136.94 12.7715 137.89 12.3145 139.062 12.3145C141.071 12.3145 142.085 13.4482 142.103 15.7158V22H140.477V15.707C140.471 15.0215 140.312 14.5146 140.002 14.1865C139.697 13.8584 139.22 13.6943 138.569 13.6943C138.042 13.6943 137.579 13.835 137.181 14.1162C136.782 14.3975 136.472 14.7666 136.249 15.2236V22H134.623V12.4902H136.161ZM150.342 19.4775C150.342 19.0381 150.175 18.6982 149.841 18.458C149.513 18.2119 148.936 18.001 148.109 17.8252C147.289 17.6494 146.636 17.4385 146.149 17.1924C145.669 16.9463 145.312 16.6533 145.077 16.3135C144.849 15.9736 144.734 15.5693 144.734 15.1006C144.734 14.3213 145.062 13.6621 145.719 13.123C146.381 12.584 147.225 12.3145 148.25 12.3145C149.328 12.3145 150.201 12.5928 150.869 13.1494C151.543 13.7061 151.88 14.418 151.88 15.2852H150.245C150.245 14.8398 150.055 14.4561 149.674 14.1338C149.299 13.8115 148.824 13.6504 148.25 13.6504C147.658 13.6504 147.195 13.7793 146.861 14.0371C146.527 14.2949 146.36 14.6318 146.36 15.0479C146.36 15.4404 146.516 15.7363 146.826 15.9355C147.137 16.1348 147.696 16.3252 148.505 16.5068C149.319 16.6885 149.979 16.9053 150.482 17.1572C150.986 17.4092 151.358 17.7139 151.599 18.0713C151.845 18.4229 151.968 18.8535 151.968 19.3633C151.968 20.2129 151.628 20.8955 150.948 21.4111C150.269 21.9209 149.387 22.1758 148.303 22.1758C147.541 22.1758 146.867 22.041 146.281 21.7715C145.695 21.502 145.235 21.127 144.901 20.6465C144.573 20.1602 144.409 19.6357 144.409 19.0732H146.035C146.064 19.6182 146.281 20.0518 146.686 20.374C147.096 20.6904 147.635 20.8486 148.303 20.8486C148.918 20.8486 149.41 20.7256 149.779 20.4795C150.154 20.2275 150.342 19.8936 150.342 19.4775ZM158.708 18.5635C158.708 17.9482 158.878 17.3828 159.218 16.8672C159.563 16.3516 160.22 15.751 161.187 15.0654C160.618 14.374 160.237 13.8174 160.044 13.3955C159.851 12.9736 159.754 12.5547 159.754 12.1387C159.754 11.166 160.041 10.4043 160.615 9.85352C161.189 9.30273 161.969 9.02734 162.953 9.02734C163.832 9.02734 164.559 9.28516 165.133 9.80078C165.707 10.3105 165.994 10.9551 165.994 11.7344C165.994 12.25 165.862 12.7275 165.599 13.167C165.341 13.6006 164.887 14.0576 164.236 14.5381L163.296 15.2324L166.144 18.6338C166.542 17.8721 166.741 17.0254 166.741 16.0938H168.209C168.209 17.5879 167.849 18.8271 167.128 19.8115L168.956 22H167.005L166.152 20.9893C165.719 21.376 165.209 21.6719 164.623 21.877C164.043 22.0762 163.451 22.1758 162.848 22.1758C161.6 22.1758 160.598 21.8447 159.842 21.1826C159.086 20.5205 158.708 19.6475 158.708 18.5635ZM162.848 20.8486C163.709 20.8486 164.497 20.5205 165.212 19.8643L162.092 16.1289L161.802 16.3398C160.823 17.0605 160.334 17.8018 160.334 18.5635C160.334 19.2549 160.557 19.8086 161.002 20.2246C161.453 20.6406 162.068 20.8486 162.848 20.8486ZM161.38 12.0859C161.38 12.6484 161.726 13.3516 162.417 14.1953L163.454 13.4658C163.853 13.1846 164.125 12.918 164.271 12.666C164.418 12.4082 164.491 12.0977 164.491 11.7344C164.491 11.3418 164.345 11.0166 164.052 10.7588C163.759 10.4951 163.39 10.3633 162.944 10.3633C162.464 10.3633 162.083 10.5273 161.802 10.8555C161.521 11.1777 161.38 11.5879 161.38 12.0859ZM182.525 16.3486H177.155V22H175.468V9.20312H183.396V10.5918H177.155V14.9688H182.525V16.3486ZM189.78 13.9492C189.534 13.9082 189.268 13.8877 188.98 13.8877C187.914 13.8877 187.19 14.3418 186.81 15.25V22H185.184V12.4902H186.766L186.792 13.5889C187.325 12.7393 188.081 12.3145 189.06 12.3145C189.376 12.3145 189.616 12.3555 189.78 12.4375V13.9492ZM195.304 22.1758C194.015 22.1758 192.966 21.7539 192.157 20.9102C191.349 20.0605 190.944 18.9268 190.944 17.5088V17.21C190.944 16.2666 191.123 15.4258 191.48 14.6875C191.844 13.9434 192.348 13.3633 192.992 12.9473C193.643 12.5254 194.346 12.3145 195.102 12.3145C196.338 12.3145 197.299 12.7217 197.984 13.5361C198.67 14.3506 199.013 15.5166 199.013 17.0342V17.7109H192.57C192.594 18.6484 192.866 19.4072 193.388 19.9873C193.915 20.5615 194.583 20.8486 195.392 20.8486C195.966 20.8486 196.452 20.7314 196.851 20.4971C197.249 20.2627 197.598 19.9521 197.896 19.5654L198.89 20.3389C198.093 21.5635 196.897 22.1758 195.304 22.1758ZM195.102 13.6504C194.445 13.6504 193.895 13.8906 193.449 14.3711C193.004 14.8457 192.729 15.5137 192.623 16.375H197.387V16.252C197.34 15.4258 197.117 14.7871 196.719 14.3359C196.32 13.8789 195.781 13.6504 195.102 13.6504ZM205.099 22.1758C203.81 22.1758 202.761 21.7539 201.952 20.9102C201.144 20.0605 200.739 18.9268 200.739 17.5088V17.21C200.739 16.2666 200.918 15.4258 201.275 14.6875C201.639 13.9434 202.143 13.3633 202.787 12.9473C203.438 12.5254 204.141 12.3145 204.896 12.3145C206.133 12.3145 207.094 12.7217 207.779 13.5361C208.465 14.3506 208.808 15.5166 208.808 17.0342V17.7109H202.365C202.389 18.6484 202.661 19.4072 203.183 19.9873C203.71 20.5615 204.378 20.8486 205.187 20.8486C205.761 20.8486 206.247 20.7314 206.646 20.4971C207.044 20.2627 207.393 19.9521 207.691 19.5654L208.685 20.3389C207.888 21.5635 206.692 22.1758 205.099 22.1758ZM204.896 13.6504C204.24 13.6504 203.689 13.8906 203.244 14.3711C202.799 14.8457 202.523 15.5137 202.418 16.375H207.182V16.252C207.135 15.4258 206.912 14.7871 206.514 14.3359C206.115 13.8789 205.576 13.6504 204.896 13.6504ZM219.688 16.2959C218.24 15.8799 217.186 15.3701 216.523 14.7666C215.867 14.1572 215.539 13.4072 215.539 12.5166C215.539 11.5088 215.94 10.6768 216.743 10.0205C217.552 9.3584 218.601 9.02734 219.89 9.02734C220.769 9.02734 221.551 9.19727 222.236 9.53711C222.928 9.87695 223.461 10.3457 223.836 10.9434C224.217 11.541 224.407 12.1943 224.407 12.9033H222.711C222.711 12.1299 222.465 11.5234 221.973 11.084C221.48 10.6387 220.786 10.416 219.89 10.416C219.058 10.416 218.407 10.6006 217.938 10.9697C217.476 11.333 217.244 11.8398 217.244 12.4902C217.244 13.0117 217.464 13.4541 217.903 13.8174C218.349 14.1748 219.102 14.5029 220.162 14.8018C221.229 15.1006 222.061 15.4316 222.658 15.7949C223.262 16.1523 223.707 16.5713 223.994 17.0518C224.287 17.5322 224.434 18.0977 224.434 18.748C224.434 19.7852 224.029 20.6172 223.221 21.2441C222.412 21.8652 221.331 22.1758 219.978 22.1758C219.099 22.1758 218.278 22.0088 217.517 21.6748C216.755 21.335 216.166 20.8721 215.75 20.2861C215.34 19.7002 215.135 19.0352 215.135 18.291H216.831C216.831 19.0645 217.115 19.6768 217.684 20.1279C218.258 20.5732 219.022 20.7959 219.978 20.7959C220.868 20.7959 221.551 20.6143 222.025 20.251C222.5 19.8877 222.737 19.3926 222.737 18.7656C222.737 18.1387 222.518 17.6553 222.078 17.3154C221.639 16.9697 220.842 16.6299 219.688 16.2959ZM228.806 10.1875V12.4902H230.581V13.7471H228.806V19.6445C228.806 20.0254 228.885 20.3125 229.043 20.5059C229.201 20.6934 229.471 20.7871 229.852 20.7871C230.039 20.7871 230.297 20.752 230.625 20.6816V22C230.197 22.1172 229.781 22.1758 229.377 22.1758C228.65 22.1758 228.103 21.9561 227.733 21.5166C227.364 21.0771 227.18 20.4531 227.18 19.6445V13.7471H225.448V12.4902H227.18V10.1875H228.806ZM232.132 17.1572C232.132 16.2256 232.313 15.3877 232.677 14.6436C233.046 13.8994 233.556 13.3252 234.206 12.9209C234.862 12.5166 235.609 12.3145 236.447 12.3145C237.742 12.3145 238.788 12.7627 239.585 13.6592C240.388 14.5557 240.789 15.748 240.789 17.2363V17.3506C240.789 18.2764 240.61 19.1084 240.253 19.8467C239.901 20.5791 239.395 21.1504 238.732 21.5605C238.076 21.9707 237.32 22.1758 236.465 22.1758C235.176 22.1758 234.13 21.7275 233.327 20.8311C232.53 19.9346 232.132 18.748 232.132 17.2715V17.1572ZM233.767 17.3506C233.767 18.4053 234.01 19.252 234.496 19.8906C234.988 20.5293 235.645 20.8486 236.465 20.8486C237.291 20.8486 237.947 20.5264 238.434 19.8818C238.92 19.2314 239.163 18.3232 239.163 17.1572C239.163 16.1143 238.914 15.2705 238.416 14.626C237.924 13.9756 237.268 13.6504 236.447 13.6504C235.645 13.6504 234.997 13.9697 234.505 14.6084C234.013 15.2471 233.767 16.1611 233.767 17.3506ZM246.893 20.8486C247.473 20.8486 247.979 20.6729 248.413 20.3213C248.847 19.9697 249.087 19.5303 249.134 19.0029H250.672C250.643 19.5479 250.455 20.0664 250.109 20.5586C249.764 21.0508 249.301 21.4434 248.721 21.7363C248.146 22.0293 247.537 22.1758 246.893 22.1758C245.598 22.1758 244.566 21.7451 243.799 20.8838C243.037 20.0166 242.656 18.833 242.656 17.333V17.0605C242.656 16.1348 242.826 15.3115 243.166 14.5908C243.506 13.8701 243.992 13.3105 244.625 12.9121C245.264 12.5137 246.017 12.3145 246.884 12.3145C247.95 12.3145 248.835 12.6338 249.538 13.2725C250.247 13.9111 250.625 14.7402 250.672 15.7598H249.134C249.087 15.1445 248.853 14.6406 248.431 14.248C248.015 13.8496 247.499 13.6504 246.884 13.6504C246.058 13.6504 245.416 13.9492 244.959 14.5469C244.508 15.1387 244.282 15.9971 244.282 17.1221V17.4297C244.282 18.5254 244.508 19.3691 244.959 19.9609C245.41 20.5527 246.055 20.8486 246.893 20.8486ZM255.404 17.5967L254.385 18.6602V22H252.759V8.5H254.385V16.665L255.255 15.6191L258.217 12.4902H260.194L256.494 16.4629L260.625 22H258.718L255.404 17.5967ZM267.093 22V9.20312H270.705C271.818 9.20312 272.803 9.44922 273.658 9.94141C274.514 10.4336 275.173 11.1338 275.636 12.042C276.104 12.9502 276.342 13.9932 276.348 15.1709V15.9883C276.348 17.1953 276.113 18.2529 275.645 19.1611C275.182 20.0693 274.517 20.7666 273.649 21.2529C272.788 21.7393 271.783 21.9883 270.635 22H267.093ZM268.78 10.5918V20.6201H270.556C271.856 20.6201 272.867 20.2158 273.588 19.4072C274.314 18.5986 274.678 17.4473 274.678 15.9531V15.2061C274.678 13.7529 274.335 12.625 273.649 11.8223C272.97 11.0137 272.003 10.6035 270.749 10.5918H268.78ZM280.667 22H279.041V12.4902H280.667V22ZM278.909 9.96777C278.909 9.7041 278.988 9.48145 279.146 9.2998C279.311 9.11816 279.551 9.02734 279.867 9.02734C280.184 9.02734 280.424 9.11816 280.588 9.2998C280.752 9.48145 280.834 9.7041 280.834 9.96777C280.834 10.2314 280.752 10.4512 280.588 10.627C280.424 10.8027 280.184 10.8906 279.867 10.8906C279.551 10.8906 279.311 10.8027 279.146 10.627C278.988 10.4512 278.909 10.2314 278.909 9.96777ZM289.064 19.4775C289.064 19.0381 288.897 18.6982 288.563 18.458C288.235 18.2119 287.658 18.001 286.832 17.8252C286.012 17.6494 285.358 17.4385 284.872 17.1924C284.392 16.9463 284.034 16.6533 283.8 16.3135C283.571 15.9736 283.457 15.5693 283.457 15.1006C283.457 14.3213 283.785 13.6621 284.441 13.123C285.104 12.584 285.947 12.3145 286.973 12.3145C288.051 12.3145 288.924 12.5928 289.592 13.1494C290.266 13.7061 290.603 14.418 290.603 15.2852H288.968C288.968 14.8398 288.777 14.4561 288.396 14.1338C288.021 13.8115 287.547 13.6504 286.973 13.6504C286.381 13.6504 285.918 13.7793 285.584 14.0371C285.25 14.2949 285.083 14.6318 285.083 15.0479C285.083 15.4404 285.238 15.7363 285.549 15.9355C285.859 16.1348 286.419 16.3252 287.228 16.5068C288.042 16.6885 288.701 16.9053 289.205 17.1572C289.709 17.4092 290.081 17.7139 290.321 18.0713C290.567 18.4229 290.69 18.8535 290.69 19.3633C290.69 20.2129 290.351 20.8955 289.671 21.4111C288.991 21.9209 288.109 22.1758 287.025 22.1758C286.264 22.1758 285.59 22.041 285.004 21.7715C284.418 21.502 283.958 21.127 283.624 20.6465C283.296 20.1602 283.132 19.6357 283.132 19.0732H284.758C284.787 19.6182 285.004 20.0518 285.408 20.374C285.818 20.6904 286.357 20.8486 287.025 20.8486C287.641 20.8486 288.133 20.7256 288.502 20.4795C288.877 20.2275 289.064 19.8936 289.064 19.4775ZM296.873 20.8486C297.453 20.8486 297.96 20.6729 298.394 20.3213C298.827 19.9697 299.067 19.5303 299.114 19.0029H300.652C300.623 19.5479 300.436 20.0664 300.09 20.5586C299.744 21.0508 299.281 21.4434 298.701 21.7363C298.127 22.0293 297.518 22.1758 296.873 22.1758C295.578 22.1758 294.547 21.7451 293.779 20.8838C293.018 20.0166 292.637 18.833 292.637 17.333V17.0605C292.637 16.1348 292.807 15.3115 293.146 14.5908C293.486 13.8701 293.973 13.3105 294.605 12.9121C295.244 12.5137 295.997 12.3145 296.864 12.3145C297.931 12.3145 298.815 12.6338 299.519 13.2725C300.228 13.9111 300.605 14.7402 300.652 15.7598H299.114C299.067 15.1445 298.833 14.6406 298.411 14.248C297.995 13.8496 297.479 13.6504 296.864 13.6504C296.038 13.6504 295.396 13.9492 294.939 14.5469C294.488 15.1387 294.263 15.9971 294.263 17.1221V17.4297C294.263 18.5254 294.488 19.3691 294.939 19.9609C295.391 20.5527 296.035 20.8486 296.873 20.8486ZM304.497 22H302.871V8.5H304.497V22ZM306.927 17.1572C306.927 16.2256 307.108 15.3877 307.472 14.6436C307.841 13.8994 308.351 13.3252 309.001 12.9209C309.657 12.5166 310.404 12.3145 311.242 12.3145C312.537 12.3145 313.583 12.7627 314.38 13.6592C315.183 14.5557 315.584 15.748 315.584 17.2363V17.3506C315.584 18.2764 315.405 19.1084 315.048 19.8467C314.696 20.5791 314.189 21.1504 313.527 21.5605C312.871 21.9707 312.115 22.1758 311.26 22.1758C309.971 22.1758 308.925 21.7275 308.122 20.8311C307.325 19.9346 306.927 18.748 306.927 17.2715V17.1572ZM308.562 17.3506C308.562 18.4053 308.805 19.252 309.291 19.8906C309.783 20.5293 310.439 20.8486 311.26 20.8486C312.086 20.8486 312.742 20.5264 313.229 19.8818C313.715 19.2314 313.958 18.3232 313.958 17.1572C313.958 16.1143 313.709 15.2705 313.211 14.626C312.719 13.9756 312.062 13.6504 311.242 13.6504C310.439 13.6504 309.792 13.9697 309.3 14.6084C308.808 15.2471 308.562 16.1611 308.562 17.3506ZM323.41 19.4775C323.41 19.0381 323.243 18.6982 322.909 18.458C322.581 18.2119 322.004 18.001 321.178 17.8252C320.357 17.6494 319.704 17.4385 319.218 17.1924C318.737 16.9463 318.38 16.6533 318.146 16.3135C317.917 15.9736 317.803 15.5693 317.803 15.1006C317.803 14.3213 318.131 13.6621 318.787 13.123C319.449 12.584 320.293 12.3145 321.318 12.3145C322.396 12.3145 323.27 12.5928 323.938 13.1494C324.611 13.7061 324.948 14.418 324.948 15.2852H323.313C323.313 14.8398 323.123 14.4561 322.742 14.1338C322.367 13.8115 321.893 13.6504 321.318 13.6504C320.727 13.6504 320.264 13.7793 319.93 14.0371C319.596 14.2949 319.429 14.6318 319.429 15.0479C319.429 15.4404 319.584 15.7363 319.895 15.9355C320.205 16.1348 320.765 16.3252 321.573 16.5068C322.388 16.6885 323.047 16.9053 323.551 17.1572C324.055 17.4092 324.427 17.7139 324.667 18.0713C324.913 18.4229 325.036 18.8535 325.036 19.3633C325.036 20.2129 324.696 20.8955 324.017 21.4111C323.337 21.9209 322.455 22.1758 321.371 22.1758C320.609 22.1758 319.936 22.041 319.35 21.7715C318.764 21.502 318.304 21.127 317.97 20.6465C317.642 20.1602 317.478 19.6357 317.478 19.0732H319.104C319.133 19.6182 319.35 20.0518 319.754 20.374C320.164 20.6904 320.703 20.8486 321.371 20.8486C321.986 20.8486 322.479 20.7256 322.848 20.4795C323.223 20.2275 323.41 19.8936 323.41 19.4775ZM333.275 21.0596C332.643 21.8037 331.714 22.1758 330.489 22.1758C329.476 22.1758 328.702 21.8828 328.169 21.2969C327.642 20.7051 327.375 19.832 327.369 18.6777V12.4902H328.995V18.6338C328.995 20.0752 329.581 20.7959 330.753 20.7959C331.995 20.7959 332.821 20.333 333.231 19.4072V12.4902H334.857V22H333.311L333.275 21.0596ZM342.183 13.9492C341.937 13.9082 341.67 13.8877 341.383 13.8877C340.316 13.8877 339.593 14.3418 339.212 15.25V22H337.586V12.4902H339.168L339.194 13.5889C339.728 12.7393 340.483 12.3145 341.462 12.3145C341.778 12.3145 342.019 12.3555 342.183 12.4375V13.9492ZM347.706 22.1758C346.417 22.1758 345.368 21.7539 344.56 20.9102C343.751 20.0605 343.347 18.9268 343.347 17.5088V17.21C343.347 16.2666 343.525 15.4258 343.883 14.6875C344.246 13.9434 344.75 13.3633 345.395 12.9473C346.045 12.5254 346.748 12.3145 347.504 12.3145C348.74 12.3145 349.701 12.7217 350.387 13.5361C351.072 14.3506 351.415 15.5166 351.415 17.0342V17.7109H344.973C344.996 18.6484 345.269 19.4072 345.79 19.9873C346.317 20.5615 346.985 20.8486 347.794 20.8486C348.368 20.8486 348.854 20.7314 349.253 20.4971C349.651 20.2627 350 19.9521 350.299 19.5654L351.292 20.3389C350.495 21.5635 349.3 22.1758 347.706 22.1758ZM347.504 13.6504C346.848 13.6504 346.297 13.8906 345.852 14.3711C345.406 14.8457 345.131 15.5137 345.025 16.375H349.789V16.252C349.742 15.4258 349.52 14.7871 349.121 14.3359C348.723 13.8789 348.184 13.6504 347.504 13.6504ZM359.092 19.4775C359.092 19.0381 358.925 18.6982 358.591 18.458C358.263 18.2119 357.686 18.001 356.859 17.8252C356.039 17.6494 355.386 17.4385 354.899 17.1924C354.419 16.9463 354.062 16.6533 353.827 16.3135C353.599 15.9736 353.484 15.5693 353.484 15.1006C353.484 14.3213 353.812 13.6621 354.469 13.123C355.131 12.584 355.975 12.3145 357 12.3145C358.078 12.3145 358.951 12.5928 359.619 13.1494C360.293 13.7061 360.63 14.418 360.63 15.2852H358.995C358.995 14.8398 358.805 14.4561 358.424 14.1338C358.049 13.8115 357.574 13.6504 357 13.6504C356.408 13.6504 355.945 13.7793 355.611 14.0371C355.277 14.2949 355.11 14.6318 355.11 15.0479C355.11 15.4404 355.266 15.7363 355.576 15.9355C355.887 16.1348 356.446 16.3252 357.255 16.5068C358.069 16.6885 358.729 16.9053 359.232 17.1572C359.736 17.4092 360.108 17.7139 360.349 18.0713C360.595 18.4229 360.718 18.8535 360.718 19.3633C360.718 20.2129 360.378 20.8955 359.698 21.4111C359.019 21.9209 358.137 22.1758 357.053 22.1758C356.291 22.1758 355.617 22.041 355.031 21.7715C354.445 21.502 353.985 21.127 353.651 20.6465C353.323 20.1602 353.159 19.6357 353.159 19.0732H354.785C354.814 19.6182 355.031 20.0518 355.436 20.374C355.846 20.6904 356.385 20.8486 357.053 20.8486C357.668 20.8486 358.16 20.7256 358.529 20.4795C358.904 20.2275 359.092 19.8936 359.092 19.4775Z" fill="black"/>
<defs>
<clipPath id="clip0_0_162">
<rect width="28" height="28" fill="white" transform="translate(0 1)"/>
</clipPath>
</defs>
</svg>
