<svg width="277" height="30" viewBox="0 0 277 30" fill="none" xmlns="http://www.w3.org/2000/svg">
<g clip-path="url(#clip0_0_137)">
<path d="M14 27.8333C21.0877 27.8333 26.8334 22.0876 26.8334 15C26.8334 7.91234 21.0877 2.16666 14 2.16666C6.91237 2.16666 1.16669 7.91234 1.16669 15C1.16669 22.0876 6.91237 27.8333 14 27.8333Z" stroke="#6F787E" stroke-width="2.33333"/>
<path d="M13.104 22H15.232V12.1067H13.104V22ZM13.0667 10.4827H15.2693V8.37332H13.0667V10.4827Z" fill="#6F787E"/>
</g>
<path d="M48.6748 16.5771H43.5244V22H41.3008V9.20312H49.4307V10.9961H43.5244V14.8018H48.6748V16.5771ZM55.9912 14.4414C55.71 14.3945 55.4199 14.3711 55.1211 14.3711C54.1426 14.3711 53.4834 14.7461 53.1436 15.4961V22H51.0078V12.4902H53.0469L53.0996 13.5537C53.6152 12.7275 54.3301 12.3145 55.2441 12.3145C55.5488 12.3145 55.8008 12.3555 56 12.4375L55.9912 14.4414ZM63.0088 22C62.915 21.8184 62.833 21.5225 62.7627 21.1123C62.083 21.8213 61.251 22.1758 60.2666 22.1758C59.3115 22.1758 58.5322 21.9033 57.9287 21.3584C57.3252 20.8135 57.0234 20.1396 57.0234 19.3369C57.0234 18.3232 57.3984 17.5469 58.1484 17.0078C58.9043 16.4629 59.9824 16.1904 61.3828 16.1904H62.6924V15.5664C62.6924 15.0742 62.5547 14.6816 62.2793 14.3887C62.0039 14.0898 61.585 13.9404 61.0225 13.9404C60.5361 13.9404 60.1377 14.0635 59.8271 14.3096C59.5166 14.5498 59.3613 14.8574 59.3613 15.2324H57.2256C57.2256 14.7109 57.3984 14.2246 57.7441 13.7734C58.0898 13.3164 58.5586 12.959 59.1504 12.7012C59.748 12.4434 60.4131 12.3145 61.1455 12.3145C62.2588 12.3145 63.1465 12.5957 63.8086 13.1582C64.4707 13.7148 64.8105 14.5 64.8281 15.5137V19.8027C64.8281 20.6582 64.9482 21.3408 65.1885 21.8506V22H63.0088ZM60.6621 20.4619C61.084 20.4619 61.4795 20.3594 61.8486 20.1543C62.2236 19.9492 62.5049 19.6738 62.6924 19.3281V17.5352H61.541C60.75 17.5352 60.1553 17.6729 59.7568 17.9482C59.3584 18.2236 59.1592 18.6133 59.1592 19.1172C59.1592 19.5273 59.2939 19.8555 59.5635 20.1016C59.8389 20.3418 60.2051 20.4619 60.6621 20.4619ZM71.2217 20.4707C71.7549 20.4707 72.1973 20.3154 72.5488 20.0049C72.9004 19.6943 73.0879 19.3105 73.1113 18.8535H75.124C75.1006 19.4453 74.916 19.999 74.5703 20.5146C74.2246 21.0244 73.7559 21.4287 73.1641 21.7275C72.5723 22.0264 71.9336 22.1758 71.248 22.1758C69.918 22.1758 68.8633 21.7451 68.084 20.8838C67.3047 20.0225 66.915 18.833 66.915 17.3154V17.0957C66.915 15.6484 67.3018 14.4912 68.0752 13.624C68.8486 12.751 69.9033 12.3145 71.2393 12.3145C72.3701 12.3145 73.29 12.6455 73.999 13.3076C74.7139 13.9639 75.0889 14.8281 75.124 15.9004H73.1113C73.0879 15.3555 72.9004 14.9072 72.5488 14.5557C72.2031 14.2041 71.7607 14.0283 71.2217 14.0283C70.5303 14.0283 69.9971 14.2803 69.6221 14.7842C69.2471 15.2822 69.0566 16.041 69.0508 17.0605V17.4033C69.0508 18.4346 69.2354 19.2051 69.6045 19.7148C69.9795 20.2188 70.5186 20.4707 71.2217 20.4707ZM79.6631 10.1787V12.4902H81.3418V14.0723H79.6631V19.3809C79.6631 19.7441 79.7334 20.0078 79.874 20.1719C80.0205 20.3301 80.2783 20.4092 80.6475 20.4092C80.8936 20.4092 81.1426 20.3799 81.3945 20.3213V21.9736C80.9082 22.1084 80.4395 22.1758 79.9883 22.1758C78.3477 22.1758 77.5273 21.2705 77.5273 19.46V14.0723H75.9629V12.4902H77.5273V10.1787H79.6631ZM85.5029 22H83.3672V12.4902H85.5029V22ZM83.2354 10.0205C83.2354 9.69238 83.3379 9.41992 83.543 9.20312C83.7539 8.98633 84.0527 8.87793 84.4395 8.87793C84.8262 8.87793 85.125 8.98633 85.3359 9.20312C85.5469 9.41992 85.6523 9.69238 85.6523 10.0205C85.6523 10.3428 85.5469 10.6123 85.3359 10.8291C85.125 11.04 84.8262 11.1455 84.4395 11.1455C84.0527 11.1455 83.7539 11.04 83.543 10.8291C83.3379 10.6123 83.2354 10.3428 83.2354 10.0205ZM87.6865 17.1572C87.6865 16.2256 87.8711 15.3877 88.2402 14.6436C88.6094 13.8936 89.1279 13.3193 89.7959 12.9209C90.4639 12.5166 91.2314 12.3145 92.0986 12.3145C93.3818 12.3145 94.4219 12.7275 95.2188 13.5537C96.0215 14.3799 96.4551 15.4756 96.5195 16.8408L96.5283 17.3418C96.5283 18.2793 96.3467 19.1172 95.9834 19.8555C95.626 20.5938 95.1104 21.165 94.4365 21.5693C93.7686 21.9736 92.9951 22.1758 92.1162 22.1758C90.7744 22.1758 89.6992 21.7305 88.8906 20.8398C88.0879 19.9434 87.6865 18.751 87.6865 17.2627V17.1572ZM89.8223 17.3418C89.8223 18.3203 90.0244 19.0879 90.4287 19.6445C90.833 20.1953 91.3955 20.4707 92.1162 20.4707C92.8369 20.4707 93.3965 20.1895 93.7949 19.627C94.1992 19.0645 94.4014 18.2412 94.4014 17.1572C94.4014 16.1963 94.1934 15.4346 93.7773 14.8721C93.3672 14.3096 92.8076 14.0283 92.0986 14.0283C91.4014 14.0283 90.8477 14.3066 90.4375 14.8633C90.0273 15.4141 89.8223 16.2402 89.8223 17.3418ZM100.566 12.4902L100.628 13.5889C101.331 12.7393 102.254 12.3145 103.396 12.3145C105.377 12.3145 106.385 13.4482 106.42 15.7158V22H104.284V15.8389C104.284 15.2354 104.152 14.79 103.889 14.5029C103.631 14.21 103.206 14.0635 102.614 14.0635C101.753 14.0635 101.111 14.4531 100.689 15.2324V22H98.5537V12.4902H100.566ZM114.536 22C114.442 21.8184 114.36 21.5225 114.29 21.1123C113.61 21.8213 112.778 22.1758 111.794 22.1758C110.839 22.1758 110.06 21.9033 109.456 21.3584C108.853 20.8135 108.551 20.1396 108.551 19.3369C108.551 18.3232 108.926 17.5469 109.676 17.0078C110.432 16.4629 111.51 16.1904 112.91 16.1904H114.22V15.5664C114.22 15.0742 114.082 14.6816 113.807 14.3887C113.531 14.0898 113.112 13.9404 112.55 13.9404C112.063 13.9404 111.665 14.0635 111.354 14.3096C111.044 14.5498 110.889 14.8574 110.889 15.2324H108.753C108.753 14.7109 108.926 14.2246 109.271 13.7734C109.617 13.3164 110.086 12.959 110.678 12.7012C111.275 12.4434 111.94 12.3145 112.673 12.3145C113.786 12.3145 114.674 12.5957 115.336 13.1582C115.998 13.7148 116.338 14.5 116.355 15.5137V19.8027C116.355 20.6582 116.476 21.3408 116.716 21.8506V22H114.536ZM112.189 20.4619C112.611 20.4619 113.007 20.3594 113.376 20.1543C113.751 19.9492 114.032 19.6738 114.22 19.3281V17.5352H113.068C112.277 17.5352 111.683 17.6729 111.284 17.9482C110.886 18.2236 110.687 18.6133 110.687 19.1172C110.687 19.5273 110.821 19.8555 111.091 20.1016C111.366 20.3418 111.732 20.4619 112.189 20.4619ZM121.114 22H118.979V8.5H121.114V22ZM135.325 18.7041C135.325 18.1416 135.126 17.708 134.728 17.4033C134.335 17.0986 133.623 16.791 132.592 16.4805C131.561 16.1699 130.74 15.8242 130.131 15.4434C128.965 14.7109 128.382 13.7559 128.382 12.5781C128.382 11.5469 128.801 10.6973 129.639 10.0293C130.482 9.36133 131.575 9.02734 132.917 9.02734C133.808 9.02734 134.602 9.19141 135.299 9.51953C135.996 9.84766 136.544 10.3164 136.942 10.9258C137.341 11.5293 137.54 12.2002 137.54 12.9385H135.325C135.325 12.2705 135.114 11.749 134.692 11.374C134.276 10.9932 133.679 10.8027 132.899 10.8027C132.173 10.8027 131.607 10.958 131.203 11.2686C130.805 11.5791 130.605 12.0127 130.605 12.5693C130.605 13.0381 130.822 13.4307 131.256 13.7471C131.689 14.0576 132.404 14.3623 133.4 14.6611C134.396 14.9541 135.196 15.291 135.8 15.6719C136.403 16.0469 136.846 16.4805 137.127 16.9727C137.408 17.459 137.549 18.0303 137.549 18.6865C137.549 19.7529 137.139 20.6025 136.318 21.2354C135.504 21.8623 134.396 22.1758 132.996 22.1758C132.07 22.1758 131.218 22.0059 130.438 21.666C129.665 21.3203 129.062 20.8457 128.628 20.2422C128.2 19.6387 127.986 18.9355 127.986 18.1328H130.21C130.21 18.8594 130.45 19.4219 130.931 19.8203C131.411 20.2188 132.1 20.418 132.996 20.418C133.77 20.418 134.35 20.2627 134.736 19.9521C135.129 19.6357 135.325 19.2197 135.325 18.7041ZM141.648 13.5273C142.346 12.7188 143.228 12.3145 144.294 12.3145C146.321 12.3145 147.35 13.4717 147.379 15.7861V22H145.243V15.8652C145.243 15.209 145.1 14.7461 144.812 14.4766C144.531 14.2012 144.115 14.0635 143.564 14.0635C142.709 14.0635 142.07 14.4443 141.648 15.2061V22H139.513V8.5H141.648V13.5273ZM155.478 22C155.384 21.8184 155.302 21.5225 155.231 21.1123C154.552 21.8213 153.72 22.1758 152.735 22.1758C151.78 22.1758 151.001 21.9033 150.397 21.3584C149.794 20.8135 149.492 20.1396 149.492 19.3369C149.492 18.3232 149.867 17.5469 150.617 17.0078C151.373 16.4629 152.451 16.1904 153.852 16.1904H155.161V15.5664C155.161 15.0742 155.023 14.6816 154.748 14.3887C154.473 14.0898 154.054 13.9404 153.491 13.9404C153.005 13.9404 152.606 14.0635 152.296 14.3096C151.985 14.5498 151.83 14.8574 151.83 15.2324H149.694C149.694 14.7109 149.867 14.2246 150.213 13.7734C150.559 13.3164 151.027 12.959 151.619 12.7012C152.217 12.4434 152.882 12.3145 153.614 12.3145C154.728 12.3145 155.615 12.5957 156.277 13.1582C156.939 13.7148 157.279 14.5 157.297 15.5137V19.8027C157.297 20.6582 157.417 21.3408 157.657 21.8506V22H155.478ZM153.131 20.4619C153.553 20.4619 153.948 20.3594 154.317 20.1543C154.692 19.9492 154.974 19.6738 155.161 19.3281V17.5352H154.01C153.219 17.5352 152.624 17.6729 152.226 17.9482C151.827 18.2236 151.628 18.6133 151.628 19.1172C151.628 19.5273 151.763 19.8555 152.032 20.1016C152.308 20.3418 152.674 20.4619 153.131 20.4619ZM164.763 14.4414C164.481 14.3945 164.191 14.3711 163.893 14.3711C162.914 14.3711 162.255 14.7461 161.915 15.4961V22H159.779V12.4902H161.818L161.871 13.5537C162.387 12.7275 163.102 12.3145 164.016 12.3145C164.32 12.3145 164.572 12.3555 164.771 12.4375L164.763 14.4414ZM170.374 22.1758C169.021 22.1758 167.922 21.751 167.078 20.9014C166.24 20.0459 165.821 18.9092 165.821 17.4912V17.2275C165.821 16.2783 166.003 15.4316 166.366 14.6875C166.735 13.9375 167.251 13.3545 167.913 12.9385C168.575 12.5225 169.313 12.3145 170.128 12.3145C171.423 12.3145 172.422 12.7275 173.125 13.5537C173.834 14.3799 174.188 15.5488 174.188 17.0605V17.9219H167.975C168.039 18.707 168.3 19.3281 168.757 19.7852C169.22 20.2422 169.8 20.4707 170.497 20.4707C171.476 20.4707 172.272 20.0752 172.888 19.2842L174.039 20.3828C173.658 20.9512 173.148 21.3936 172.51 21.71C171.877 22.0205 171.165 22.1758 170.374 22.1758ZM170.119 14.0283C169.533 14.0283 169.059 14.2334 168.695 14.6436C168.338 15.0537 168.109 15.625 168.01 16.3574H172.079V16.1992C172.032 15.4844 171.842 14.9453 171.508 14.582C171.174 14.2129 170.711 14.0283 170.119 14.0283ZM181.435 19.416C181.435 19.0352 181.276 18.7451 180.96 18.5459C180.649 18.3467 180.131 18.1709 179.404 18.0186C178.678 17.8662 178.071 17.6729 177.585 17.4385C176.519 16.9229 175.985 16.1758 175.985 15.1973C175.985 14.377 176.331 13.6914 177.022 13.1406C177.714 12.5898 178.593 12.3145 179.659 12.3145C180.796 12.3145 181.713 12.5957 182.41 13.1582C183.113 13.7207 183.465 14.4502 183.465 15.3467H181.329C181.329 14.9365 181.177 14.5967 180.872 14.3271C180.567 14.0518 180.163 13.9141 179.659 13.9141C179.19 13.9141 178.807 14.0225 178.508 14.2393C178.215 14.4561 178.068 14.7461 178.068 15.1094C178.068 15.4375 178.206 15.6924 178.481 15.874C178.757 16.0557 179.313 16.2402 180.151 16.4277C180.989 16.6094 181.646 16.8291 182.12 17.0869C182.601 17.3389 182.955 17.6436 183.184 18.001C183.418 18.3584 183.535 18.792 183.535 19.3018C183.535 20.1572 183.181 20.8516 182.472 21.3848C181.763 21.9121 180.834 22.1758 179.686 22.1758C178.906 22.1758 178.212 22.0352 177.603 21.7539C176.993 21.4727 176.519 21.0859 176.179 20.5938C175.839 20.1016 175.669 19.5713 175.669 19.0029H177.743C177.772 19.5068 177.963 19.8965 178.314 20.1719C178.666 20.4414 179.132 20.5762 179.712 20.5762C180.274 20.5762 180.702 20.4707 180.995 20.2598C181.288 20.043 181.435 19.7617 181.435 19.416ZM190.592 22V9.20312H194.371C195.502 9.20312 196.504 9.45508 197.377 9.95898C198.256 10.4629 198.936 11.1777 199.416 12.1035C199.896 13.0293 200.137 14.0898 200.137 15.2852V15.9268C200.137 17.1396 199.894 18.2061 199.407 19.126C198.927 20.0459 198.238 20.7549 197.342 21.2529C196.451 21.751 195.429 22 194.274 22H190.592ZM192.815 10.9961V20.2246H194.266C195.432 20.2246 196.325 19.8613 196.946 19.1348C197.573 18.4023 197.893 17.3535 197.904 15.9883V15.2764C197.904 13.8877 197.603 12.8271 196.999 12.0947C196.396 11.3623 195.52 10.9961 194.371 10.9961H192.815ZM204.667 22H202.531V12.4902H204.667V22ZM202.399 10.0205C202.399 9.69238 202.502 9.41992 202.707 9.20312C202.918 8.98633 203.217 8.87793 203.604 8.87793C203.99 8.87793 204.289 8.98633 204.5 9.20312C204.711 9.41992 204.816 9.69238 204.816 10.0205C204.816 10.3428 204.711 10.6123 204.5 10.8291C204.289 11.04 203.99 11.1455 203.604 11.1455C203.217 11.1455 202.918 11.04 202.707 10.8291C202.502 10.6123 202.399 10.3428 202.399 10.0205ZM212.581 19.416C212.581 19.0352 212.423 18.7451 212.106 18.5459C211.796 18.3467 211.277 18.1709 210.551 18.0186C209.824 17.8662 209.218 17.6729 208.731 17.4385C207.665 16.9229 207.132 16.1758 207.132 15.1973C207.132 14.377 207.478 13.6914 208.169 13.1406C208.86 12.5898 209.739 12.3145 210.806 12.3145C211.942 12.3145 212.859 12.5957 213.557 13.1582C214.26 13.7207 214.611 14.4502 214.611 15.3467H212.476C212.476 14.9365 212.323 14.5967 212.019 14.3271C211.714 14.0518 211.31 13.9141 210.806 13.9141C210.337 13.9141 209.953 14.0225 209.654 14.2393C209.361 14.4561 209.215 14.7461 209.215 15.1094C209.215 15.4375 209.353 15.6924 209.628 15.874C209.903 16.0557 210.46 16.2402 211.298 16.4277C212.136 16.6094 212.792 16.8291 213.267 17.0869C213.747 17.3389 214.102 17.6436 214.33 18.001C214.564 18.3584 214.682 18.792 214.682 19.3018C214.682 20.1572 214.327 20.8516 213.618 21.3848C212.909 21.9121 211.98 22.1758 210.832 22.1758C210.053 22.1758 209.358 22.0352 208.749 21.7539C208.14 21.4727 207.665 21.0859 207.325 20.5938C206.985 20.1016 206.815 19.5713 206.815 19.0029H208.89C208.919 19.5068 209.109 19.8965 209.461 20.1719C209.812 20.4414 210.278 20.5762 210.858 20.5762C211.421 20.5762 211.849 20.4707 212.142 20.2598C212.435 20.043 212.581 19.7617 212.581 19.416ZM220.706 20.4707C221.239 20.4707 221.682 20.3154 222.033 20.0049C222.385 19.6943 222.572 19.3105 222.596 18.8535H224.608C224.585 19.4453 224.4 19.999 224.055 20.5146C223.709 21.0244 223.24 21.4287 222.648 21.7275C222.057 22.0264 221.418 22.1758 220.732 22.1758C219.402 22.1758 218.348 21.7451 217.568 20.8838C216.789 20.0225 216.399 18.833 216.399 17.3154V17.0957C216.399 15.6484 216.786 14.4912 217.56 13.624C218.333 12.751 219.388 12.3145 220.724 12.3145C221.854 12.3145 222.774 12.6455 223.483 13.3076C224.198 13.9639 224.573 14.8281 224.608 15.9004H222.596C222.572 15.3555 222.385 14.9072 222.033 14.5557C221.688 14.2041 221.245 14.0283 220.706 14.0283C220.015 14.0283 219.481 14.2803 219.106 14.7842C218.731 15.2822 218.541 16.041 218.535 17.0605V17.4033C218.535 18.4346 218.72 19.2051 219.089 19.7148C219.464 20.2188 220.003 20.4707 220.706 20.4707ZM228.743 22H226.607V8.5H228.743V22ZM230.927 17.1572C230.927 16.2256 231.111 15.3877 231.48 14.6436C231.85 13.8936 232.368 13.3193 233.036 12.9209C233.704 12.5166 234.472 12.3145 235.339 12.3145C236.622 12.3145 237.662 12.7275 238.459 13.5537C239.262 14.3799 239.695 15.4756 239.76 16.8408L239.769 17.3418C239.769 18.2793 239.587 19.1172 239.224 19.8555C238.866 20.5938 238.351 21.165 237.677 21.5693C237.009 21.9736 236.235 22.1758 235.356 22.1758C234.015 22.1758 232.939 21.7305 232.131 20.8398C231.328 19.9434 230.927 18.751 230.927 17.2627V17.1572ZM233.062 17.3418C233.062 18.3203 233.265 19.0879 233.669 19.6445C234.073 20.1953 234.636 20.4707 235.356 20.4707C236.077 20.4707 236.637 20.1895 237.035 19.627C237.439 19.0645 237.642 18.2412 237.642 17.1572C237.642 16.1963 237.434 15.4346 237.018 14.8721C236.607 14.3096 236.048 14.0283 235.339 14.0283C234.642 14.0283 234.088 14.3066 233.678 14.8633C233.268 15.4141 233.062 16.2402 233.062 17.3418ZM247.155 19.416C247.155 19.0352 246.997 18.7451 246.681 18.5459C246.37 18.3467 245.852 18.1709 245.125 18.0186C244.398 17.8662 243.792 17.6729 243.306 17.4385C242.239 16.9229 241.706 16.1758 241.706 15.1973C241.706 14.377 242.052 13.6914 242.743 13.1406C243.435 12.5898 244.313 12.3145 245.38 12.3145C246.517 12.3145 247.434 12.5957 248.131 13.1582C248.834 13.7207 249.186 14.4502 249.186 15.3467H247.05C247.05 14.9365 246.897 14.5967 246.593 14.3271C246.288 14.0518 245.884 13.9141 245.38 13.9141C244.911 13.9141 244.527 14.0225 244.229 14.2393C243.936 14.4561 243.789 14.7461 243.789 15.1094C243.789 15.4375 243.927 15.6924 244.202 15.874C244.478 16.0557 245.034 16.2402 245.872 16.4277C246.71 16.6094 247.366 16.8291 247.841 17.0869C248.321 17.3389 248.676 17.6436 248.904 18.001C249.139 18.3584 249.256 18.792 249.256 19.3018C249.256 20.1572 248.901 20.8516 248.192 21.3848C247.483 21.9121 246.555 22.1758 245.406 22.1758C244.627 22.1758 243.933 22.0352 243.323 21.7539C242.714 21.4727 242.239 21.0859 241.899 20.5938C241.56 20.1016 241.39 19.5713 241.39 19.0029H243.464C243.493 19.5068 243.684 19.8965 244.035 20.1719C244.387 20.4414 244.853 20.5762 245.433 20.5762C245.995 20.5762 246.423 20.4707 246.716 20.2598C247.009 20.043 247.155 19.7617 247.155 19.416ZM257.135 21.0684C256.508 21.8066 255.617 22.1758 254.463 22.1758C253.432 22.1758 252.649 21.874 252.116 21.2705C251.589 20.667 251.325 19.7939 251.325 18.6514V12.4902H253.461V18.625C253.461 19.832 253.962 20.4355 254.964 20.4355C256.001 20.4355 256.701 20.0635 257.064 19.3193V12.4902H259.2V22H257.188L257.135 21.0684ZM266.604 14.4414C266.323 14.3945 266.033 14.3711 265.734 14.3711C264.756 14.3711 264.097 14.7461 263.757 15.4961V22H261.621V12.4902H263.66L263.713 13.5537C264.229 12.7275 264.943 12.3145 265.857 12.3145C266.162 12.3145 266.414 12.3555 266.613 12.4375L266.604 14.4414ZM272.216 22.1758C270.862 22.1758 269.764 21.751 268.92 20.9014C268.082 20.0459 267.663 18.9092 267.663 17.4912V17.2275C267.663 16.2783 267.845 15.4316 268.208 14.6875C268.577 13.9375 269.093 13.3545 269.755 12.9385C270.417 12.5225 271.155 12.3145 271.97 12.3145C273.265 12.3145 274.264 12.7275 274.967 13.5537C275.676 14.3799 276.03 15.5488 276.03 17.0605V17.9219H269.816C269.881 18.707 270.142 19.3281 270.599 19.7852C271.062 20.2422 271.642 20.4707 272.339 20.4707C273.317 20.4707 274.114 20.0752 274.729 19.2842L275.881 20.3828C275.5 20.9512 274.99 21.3936 274.352 21.71C273.719 22.0205 273.007 22.1758 272.216 22.1758ZM271.961 14.0283C271.375 14.0283 270.9 14.2334 270.537 14.6436C270.18 15.0537 269.951 15.625 269.852 16.3574H273.921V16.1992C273.874 15.4844 273.684 14.9453 273.35 14.582C273.016 14.2129 272.553 14.0283 271.961 14.0283Z" fill="#6F787E"/>
<defs>
<clipPath id="clip0_0_137">
<rect width="28" height="28" fill="white" transform="translate(0 1)"/>
</clipPath>
</defs>
</svg>
