<svg width="370" height="30" viewBox="0 0 370 30" fill="none" xmlns="http://www.w3.org/2000/svg">
<g clip-path="url(#clip0_0_97)">
<path d="M14 27.8333C21.0877 27.8333 26.8334 22.0876 26.8334 15C26.8334 7.9123 21.0877 2.16663 14 2.16663C6.91237 2.16663 1.16669 7.9123 1.16669 15C1.16669 22.0876 6.91237 27.8333 14 27.8333Z" stroke="#6F787E" stroke-width="2.33333"/>
<path d="M13.104 22H15.232V12.1066H13.104V22ZM13.0667 10.4826H15.2693V8.37329H13.0667V10.4826Z" fill="#6F787E"/>
</g>
<path d="M45.4038 19.8833L48.8569 9.91406H50.6001L46.1177 22H44.7065L40.2324 9.91406H41.9673L45.4038 19.8833ZM57.3994 22C57.3109 21.8229 57.2389 21.5075 57.1836 21.0537C56.4697 21.7952 55.6175 22.166 54.627 22.166C53.7415 22.166 53.0138 21.917 52.4438 21.4189C51.8794 20.9154 51.5972 20.279 51.5972 19.5098C51.5972 18.5745 51.9513 17.8496 52.6597 17.335C53.3735 16.8148 54.3752 16.5547 55.6646 16.5547H57.1587V15.8491C57.1587 15.3123 56.9982 14.8862 56.6772 14.5708C56.3563 14.2498 55.8831 14.0894 55.2578 14.0894C54.71 14.0894 54.2507 14.2277 53.8799 14.5044C53.5091 14.7811 53.3237 15.1159 53.3237 15.5088H51.7798C51.7798 15.0605 51.9375 14.6289 52.2529 14.2139C52.5739 13.7933 53.0055 13.4613 53.5479 13.2178C54.0957 12.9743 54.6961 12.8525 55.3491 12.8525C56.384 12.8525 57.1947 13.1126 57.7812 13.6328C58.3678 14.1475 58.6722 14.8586 58.6943 15.7661V19.8999C58.6943 20.7244 58.7995 21.3802 59.0098 21.8672V22H57.3994ZM54.8511 20.8296C55.3325 20.8296 55.7891 20.7051 56.2207 20.4561C56.6523 20.207 56.965 19.8833 57.1587 19.4849V17.6421H55.9551C54.0736 17.6421 53.1328 18.1927 53.1328 19.2939C53.1328 19.7754 53.2933 20.1517 53.6143 20.4229C53.9352 20.694 54.3475 20.8296 54.8511 20.8296ZM65.6929 14.3965C65.4604 14.3577 65.2087 14.3384 64.9375 14.3384C63.9303 14.3384 63.2469 14.7673 62.8872 15.625V22H61.3516V13.0186H62.8457L62.8706 14.0562C63.3742 13.2537 64.0881 12.8525 65.0122 12.8525C65.311 12.8525 65.5379 12.8913 65.6929 12.9688V14.3965ZM69.0308 22H67.4951V13.0186H69.0308V22ZM67.3706 10.6362C67.3706 10.3872 67.4453 10.1769 67.5947 10.0054C67.7497 9.83382 67.9766 9.74805 68.2754 9.74805C68.5742 9.74805 68.8011 9.83382 68.9561 10.0054C69.111 10.1769 69.1885 10.3872 69.1885 10.6362C69.1885 10.8853 69.111 11.0928 68.9561 11.2588C68.8011 11.4248 68.5742 11.5078 68.2754 11.5078C67.9766 11.5078 67.7497 11.4248 67.5947 11.2588C67.4453 11.0928 67.3706 10.8853 67.3706 10.6362ZM77.291 22C77.2025 21.8229 77.1305 21.5075 77.0752 21.0537C76.3613 21.7952 75.5091 22.166 74.5186 22.166C73.6331 22.166 72.9054 21.917 72.3354 21.4189C71.771 20.9154 71.4888 20.279 71.4888 19.5098C71.4888 18.5745 71.8429 17.8496 72.5513 17.335C73.2651 16.8148 74.2668 16.5547 75.5562 16.5547H77.0503V15.8491C77.0503 15.3123 76.8898 14.8862 76.5688 14.5708C76.2479 14.2498 75.7747 14.0894 75.1494 14.0894C74.6016 14.0894 74.1423 14.2277 73.7715 14.5044C73.4007 14.7811 73.2153 15.1159 73.2153 15.5088H71.6714C71.6714 15.0605 71.8291 14.6289 72.1445 14.2139C72.4655 13.7933 72.8971 13.4613 73.4395 13.2178C73.9873 12.9743 74.5877 12.8525 75.2407 12.8525C76.2756 12.8525 77.0863 13.1126 77.6729 13.6328C78.2594 14.1475 78.5638 14.8586 78.5859 15.7661V19.8999C78.5859 20.7244 78.6911 21.3802 78.9014 21.8672V22H77.291ZM74.7427 20.8296C75.2241 20.8296 75.6807 20.7051 76.1123 20.4561C76.5439 20.207 76.8566 19.8833 77.0503 19.4849V17.6421H75.8467C73.9652 17.6421 73.0244 18.1927 73.0244 19.2939C73.0244 19.7754 73.1849 20.1517 73.5059 20.4229C73.8268 20.694 74.2391 20.8296 74.7427 20.8296ZM88.8467 17.6089C88.8467 18.9813 88.5312 20.0853 87.9004 20.9209C87.2695 21.751 86.4229 22.166 85.3604 22.166C84.2259 22.166 83.3488 21.7648 82.729 20.9624L82.6543 22H81.2432V9.25H82.7788V14.0063C83.3986 13.2371 84.2536 12.8525 85.3438 12.8525C86.4339 12.8525 87.2889 13.2648 87.9087 14.0894C88.534 14.9139 88.8467 16.0428 88.8467 17.4761V17.6089ZM87.311 17.4346C87.311 16.3887 87.109 15.5807 86.7051 15.0107C86.3011 14.4408 85.7201 14.1558 84.9619 14.1558C83.9492 14.1558 83.2215 14.6261 82.7788 15.5669V19.4517C83.2492 20.3924 83.9824 20.8628 84.9785 20.8628C85.7145 20.8628 86.2873 20.5778 86.6968 20.0078C87.1063 19.4378 87.311 18.5801 87.311 17.4346ZM92.7075 22H91.1719V9.25H92.7075V22ZM99.1499 22.166C97.9325 22.166 96.9419 21.7676 96.1782 20.9707C95.4146 20.1683 95.0327 19.0975 95.0327 17.7583V17.4761C95.0327 16.5851 95.2015 15.791 95.5391 15.0938C95.8822 14.391 96.3581 13.8431 96.9668 13.4502C97.5811 13.0518 98.2451 12.8525 98.959 12.8525C100.127 12.8525 101.034 13.2371 101.682 14.0063C102.329 14.7756 102.653 15.8768 102.653 17.3101V17.9492H96.5684C96.5905 18.8346 96.8478 19.5513 97.3403 20.0991C97.8384 20.6414 98.4692 20.9126 99.2329 20.9126C99.7752 20.9126 100.235 20.8019 100.611 20.5806C100.987 20.3592 101.316 20.0659 101.599 19.7007L102.537 20.4312C101.784 21.5877 100.655 22.166 99.1499 22.166ZM98.959 14.1143C98.3392 14.1143 97.819 14.3411 97.3984 14.7949C96.9779 15.2432 96.7178 15.874 96.6182 16.6875H101.117V16.5713C101.073 15.791 100.863 15.1878 100.486 14.7617C100.11 14.3301 99.6009 14.1143 98.959 14.1143ZM116.069 18.8457H111.005L109.868 22H108.225L112.84 9.91406H114.234L118.858 22H117.223L116.069 18.8457ZM111.487 17.5342H115.596L113.537 11.8813L111.487 17.5342ZM122.329 17.2686V22H120.735V9.91406H125.192C126.515 9.91406 127.55 10.2516 128.297 10.9268C129.049 11.6019 129.426 12.4956 129.426 13.6079C129.426 14.7811 129.058 15.6859 128.322 16.3223C127.591 16.9531 126.543 17.2686 125.176 17.2686H122.329ZM122.329 15.9653H125.192C126.045 15.9653 126.698 15.7661 127.151 15.3677C127.605 14.9637 127.832 14.3826 127.832 13.6245C127.832 12.9051 127.605 12.3296 127.151 11.8979C126.698 11.4663 126.075 11.2422 125.284 11.2256H122.329V15.9653ZM135.395 15.9819L138.549 9.91406H140.359L136.192 17.4927V22H134.598V17.4927L130.431 9.91406H132.257L135.395 15.9819ZM151.94 22C151.852 21.8229 151.78 21.5075 151.725 21.0537C151.011 21.7952 150.159 22.166 149.168 22.166C148.283 22.166 147.555 21.917 146.985 21.4189C146.42 20.9154 146.138 20.279 146.138 19.5098C146.138 18.5745 146.492 17.8496 147.201 17.335C147.915 16.8148 148.916 16.5547 150.206 16.5547H151.7V15.8491C151.7 15.3123 151.539 14.8862 151.218 14.5708C150.897 14.2498 150.424 14.0894 149.799 14.0894C149.251 14.0894 148.792 14.2277 148.421 14.5044C148.05 14.7811 147.865 15.1159 147.865 15.5088H146.321C146.321 15.0605 146.479 14.6289 146.794 14.2139C147.115 13.7933 147.547 13.4613 148.089 13.2178C148.637 12.9743 149.237 12.8525 149.89 12.8525C150.925 12.8525 151.736 13.1126 152.322 13.6328C152.909 14.1475 153.213 14.8586 153.235 15.7661V19.8999C153.235 20.7244 153.34 21.3802 153.551 21.8672V22H151.94ZM149.392 20.8296C149.874 20.8296 150.33 20.7051 150.762 20.4561C151.193 20.207 151.506 19.8833 151.7 19.4849V17.6421H150.496C148.615 17.6421 147.674 18.1927 147.674 19.2939C147.674 19.7754 147.834 20.1517 148.155 20.4229C148.476 20.694 148.889 20.8296 149.392 20.8296ZM157.345 13.0186L157.395 14.1475C158.081 13.2842 158.978 12.8525 160.084 12.8525C161.983 12.8525 162.94 13.9233 162.957 16.0649V22H161.421V16.0566C161.415 15.4092 161.266 14.9305 160.973 14.6206C160.685 14.3107 160.234 14.1558 159.62 14.1558C159.122 14.1558 158.684 14.2886 158.308 14.5542C157.932 14.8198 157.639 15.1685 157.428 15.6001V22H155.893V13.0186H157.345ZM165.149 17.4346C165.149 16.0566 165.475 14.9499 166.128 14.1143C166.781 13.2731 167.636 12.8525 168.693 12.8525C169.745 12.8525 170.578 13.2122 171.192 13.9316V9.25H172.728V22H171.316L171.242 21.0371C170.627 21.7897 169.772 22.166 168.677 22.166C167.636 22.166 166.787 21.7399 166.128 20.8877C165.475 20.0355 165.149 18.9232 165.149 17.5508V17.4346ZM166.685 17.6089C166.685 18.6271 166.895 19.424 167.315 19.9995C167.736 20.575 168.317 20.8628 169.059 20.8628C170.033 20.8628 170.744 20.4256 171.192 19.5513V15.4258C170.733 14.5791 170.027 14.1558 169.075 14.1558C168.323 14.1558 167.736 14.4463 167.315 15.0273C166.895 15.6084 166.685 16.4689 166.685 17.6089ZM180.076 22V9.91406H183.487C184.539 9.91406 185.468 10.1465 186.276 10.6113C187.084 11.0762 187.707 11.7375 188.144 12.5952C188.587 13.453 188.811 14.438 188.816 15.5503V16.3223C188.816 17.4622 188.595 18.4611 188.152 19.3188C187.715 20.1766 187.087 20.8351 186.268 21.2944C185.455 21.7537 184.506 21.9889 183.421 22H180.076ZM181.669 11.2256V20.6968H183.346C184.575 20.6968 185.529 20.3149 186.21 19.5513C186.896 18.7876 187.239 17.7002 187.239 16.2891V15.5835C187.239 14.2111 186.916 13.1458 186.268 12.3877C185.626 11.624 184.713 11.2367 183.529 11.2256H181.669ZM194.968 22.166C193.751 22.166 192.76 21.7676 191.997 20.9707C191.233 20.1683 190.851 19.0975 190.851 17.7583V17.4761C190.851 16.5851 191.02 15.791 191.357 15.0938C191.701 14.391 192.176 13.8431 192.785 13.4502C193.399 13.0518 194.063 12.8525 194.777 12.8525C195.945 12.8525 196.853 13.2371 197.5 14.0063C198.147 14.7756 198.471 15.8768 198.471 17.3101V17.9492H192.387C192.409 18.8346 192.666 19.5513 193.159 20.0991C193.657 20.6414 194.288 20.9126 195.051 20.9126C195.594 20.9126 196.053 20.8019 196.429 20.5806C196.806 20.3592 197.135 20.0659 197.417 19.7007L198.355 20.4312C197.602 21.5877 196.473 22.166 194.968 22.166ZM194.777 14.1143C194.158 14.1143 193.637 14.3411 193.217 14.7949C192.796 15.2432 192.536 15.874 192.437 16.6875H196.936V16.5713C196.891 15.791 196.681 15.1878 196.305 14.7617C195.928 14.3301 195.419 14.1143 194.777 14.1143ZM208.109 17.6089C208.109 18.9813 207.794 20.0853 207.163 20.9209C206.532 21.751 205.686 22.166 204.623 22.166C203.489 22.166 202.611 21.7648 201.992 20.9624L201.917 22H200.506V9.25H202.042V14.0063C202.661 13.2371 203.516 12.8525 204.606 12.8525C205.697 12.8525 206.552 13.2648 207.171 14.0894C207.797 14.9139 208.109 16.0428 208.109 17.4761V17.6089ZM206.574 17.4346C206.574 16.3887 206.372 15.5807 205.968 15.0107C205.564 14.4408 204.983 14.1558 204.225 14.1558C203.212 14.1558 202.484 14.6261 202.042 15.5669V19.4517C202.512 20.3924 203.245 20.8628 204.241 20.8628C204.977 20.8628 205.55 20.5778 205.959 20.0078C206.369 19.4378 206.574 18.5801 206.574 17.4346ZM211.97 22H210.435V13.0186H211.97V22ZM210.31 10.6362C210.31 10.3872 210.385 10.1769 210.534 10.0054C210.689 9.83382 210.916 9.74805 211.215 9.74805C211.514 9.74805 211.741 9.83382 211.896 10.0054C212.05 10.1769 212.128 10.3872 212.128 10.6362C212.128 10.8853 212.05 11.0928 211.896 11.2588C211.741 11.4248 211.514 11.5078 211.215 11.5078C210.916 11.5078 210.689 11.4248 210.534 11.2588C210.385 11.0928 210.31 10.8853 210.31 10.6362ZM216.769 10.8438V13.0186H218.446V14.2056H216.769V19.7754C216.769 20.1351 216.844 20.4062 216.993 20.5889C217.143 20.766 217.397 20.8545 217.757 20.8545C217.934 20.8545 218.177 20.8213 218.487 20.7549V22C218.083 22.1107 217.69 22.166 217.309 22.166C216.622 22.166 216.105 21.9585 215.756 21.5435C215.408 21.1284 215.233 20.5391 215.233 19.7754V14.2056H213.598V13.0186H215.233V10.8438H216.769ZM234.095 18.165C233.945 19.4434 233.472 20.4312 232.675 21.1284C231.884 21.8201 230.83 22.166 229.513 22.166C228.085 22.166 226.939 21.6541 226.076 20.6304C225.218 19.6066 224.79 18.237 224.79 16.5215V15.3594C224.79 14.236 224.989 13.2482 225.387 12.396C225.791 11.5438 226.361 10.8908 227.097 10.437C227.833 9.9777 228.685 9.74805 229.654 9.74805C230.938 9.74805 231.967 10.1077 232.742 10.8271C233.516 11.541 233.967 12.5316 234.095 13.7988H232.493C232.354 12.8359 232.053 12.1387 231.588 11.707C231.129 11.2754 230.484 11.0596 229.654 11.0596C228.636 11.0596 227.836 11.4359 227.255 12.1885C226.679 12.9411 226.392 14.0119 226.392 15.4009V16.5713C226.392 17.8828 226.666 18.9259 227.213 19.7007C227.761 20.4754 228.528 20.8628 229.513 20.8628C230.398 20.8628 231.076 20.6636 231.546 20.2651C232.022 19.8612 232.338 19.1611 232.493 18.165H234.095ZM241.832 22C241.743 21.8229 241.672 21.5075 241.616 21.0537C240.902 21.7952 240.05 22.166 239.06 22.166C238.174 22.166 237.446 21.917 236.876 21.4189C236.312 20.9154 236.03 20.279 236.03 19.5098C236.03 18.5745 236.384 17.8496 237.092 17.335C237.806 16.8148 238.808 16.5547 240.097 16.5547H241.591V15.8491C241.591 15.3123 241.431 14.8862 241.11 14.5708C240.789 14.2498 240.316 14.0894 239.69 14.0894C239.143 14.0894 238.683 14.2277 238.312 14.5044C237.942 14.7811 237.756 15.1159 237.756 15.5088H236.212C236.212 15.0605 236.37 14.6289 236.686 14.2139C237.007 13.7933 237.438 13.4613 237.98 13.2178C238.528 12.9743 239.129 12.8525 239.782 12.8525C240.817 12.8525 241.627 13.1126 242.214 13.6328C242.8 14.1475 243.105 14.8586 243.127 15.7661V19.8999C243.127 20.7244 243.232 21.3802 243.442 21.8672V22H241.832ZM239.284 20.8296C239.765 20.8296 240.222 20.7051 240.653 20.4561C241.085 20.207 241.398 19.8833 241.591 19.4849V17.6421H240.388C238.506 17.6421 237.565 18.1927 237.565 19.2939C237.565 19.7754 237.726 20.1517 238.047 20.4229C238.368 20.694 238.78 20.8296 239.284 20.8296ZM250.125 14.3965C249.893 14.3577 249.641 14.3384 249.37 14.3384C248.363 14.3384 247.68 14.7673 247.32 15.625V22H245.784V13.0186H247.278L247.303 14.0562C247.807 13.2537 248.521 12.8525 249.445 12.8525C249.744 12.8525 249.971 12.8913 250.125 12.9688V14.3965ZM251.255 17.4346C251.255 16.0566 251.582 14.9499 252.235 14.1143C252.888 13.2731 253.743 12.8525 254.8 12.8525C255.851 12.8525 256.684 13.2122 257.298 13.9316V9.25H258.834V22H257.423L257.348 21.0371C256.734 21.7897 255.879 22.166 254.783 22.166C253.743 22.166 252.893 21.7399 252.235 20.8877C251.582 20.0355 251.255 18.9232 251.255 17.5508V17.4346ZM252.791 17.6089C252.791 18.6271 253.001 19.424 253.422 19.9995C253.842 20.575 254.424 20.8628 255.165 20.8628C256.139 20.8628 256.85 20.4256 257.298 19.5513V15.4258C256.839 14.5791 256.133 14.1558 255.182 14.1558C254.429 14.1558 253.842 14.4463 253.422 15.0273C253.001 15.6084 252.791 16.4689 252.791 17.6089ZM266.182 22V9.91406H269.594C270.645 9.91406 271.575 10.1465 272.383 10.6113C273.191 11.0762 273.813 11.7375 274.25 12.5952C274.693 13.453 274.917 14.438 274.923 15.5503V16.3223C274.923 17.4622 274.701 18.4611 274.259 19.3188C273.822 20.1766 273.194 20.8351 272.375 21.2944C271.561 21.7537 270.612 21.9889 269.527 22H266.182ZM267.776 11.2256V20.6968H269.453C270.681 20.6968 271.636 20.3149 272.316 19.5513C273.003 18.7876 273.346 17.7002 273.346 16.2891V15.5835C273.346 14.2111 273.022 13.1458 272.375 12.3877C271.733 11.624 270.819 11.2367 269.635 11.2256H267.776ZM279.016 22H277.48V13.0186H279.016V22ZM277.356 10.6362C277.356 10.3872 277.431 10.1769 277.58 10.0054C277.735 9.83382 277.962 9.74805 278.261 9.74805C278.56 9.74805 278.786 9.83382 278.941 10.0054C279.096 10.1769 279.174 10.3872 279.174 10.6362C279.174 10.8853 279.096 11.0928 278.941 11.2588C278.786 11.4248 278.56 11.5078 278.261 11.5078C277.962 11.5078 277.735 11.4248 277.58 11.2588C277.431 11.0928 277.356 10.8853 277.356 10.6362ZM286.961 19.6177C286.961 19.2026 286.803 18.8817 286.488 18.6548C286.178 18.4224 285.633 18.2231 284.853 18.0571C284.078 17.8911 283.461 17.6919 283.001 17.4595C282.548 17.2271 282.21 16.9504 281.989 16.6294C281.773 16.3084 281.665 15.9266 281.665 15.4839C281.665 14.7479 281.975 14.1253 282.595 13.6162C283.22 13.1071 284.017 12.8525 284.985 12.8525C286.004 12.8525 286.828 13.1154 287.459 13.6411C288.095 14.1668 288.414 14.8392 288.414 15.6582H286.87C286.87 15.2376 286.69 14.8752 286.33 14.5708C285.976 14.2664 285.528 14.1143 284.985 14.1143C284.426 14.1143 283.989 14.236 283.674 14.4795C283.358 14.723 283.201 15.0412 283.201 15.4341C283.201 15.8049 283.347 16.0843 283.641 16.2725C283.934 16.4606 284.462 16.6405 285.226 16.812C285.995 16.9836 286.618 17.1883 287.094 17.4263C287.57 17.6642 287.921 17.952 288.148 18.2896C288.38 18.6216 288.497 19.0283 288.497 19.5098C288.497 20.3122 288.176 20.9569 287.534 21.4438C286.892 21.9253 286.059 22.166 285.035 22.166C284.316 22.166 283.679 22.0387 283.126 21.7842C282.573 21.5296 282.138 21.1755 281.823 20.7217C281.513 20.2624 281.358 19.7671 281.358 19.2358H282.894C282.921 19.7505 283.126 20.16 283.508 20.4644C283.895 20.7632 284.404 20.9126 285.035 20.9126C285.616 20.9126 286.081 20.7964 286.43 20.564C286.784 20.326 286.961 20.0106 286.961 19.6177ZM294.35 20.9126C294.897 20.9126 295.376 20.7466 295.786 20.4146C296.195 20.0825 296.422 19.6675 296.466 19.1694H297.919C297.891 19.6841 297.714 20.1738 297.388 20.6387C297.061 21.1035 296.624 21.4743 296.076 21.751C295.534 22.0277 294.958 22.166 294.35 22.166C293.127 22.166 292.153 21.7593 291.428 20.9458C290.708 20.1268 290.349 19.009 290.349 17.5923V17.335C290.349 16.4606 290.509 15.6831 290.83 15.0024C291.151 14.3218 291.61 13.7933 292.208 13.417C292.811 13.0407 293.522 12.8525 294.341 12.8525C295.348 12.8525 296.184 13.1541 296.848 13.7573C297.518 14.3605 297.875 15.1436 297.919 16.1064H296.466C296.422 15.5254 296.201 15.0495 295.802 14.6787C295.409 14.3024 294.922 14.1143 294.341 14.1143C293.561 14.1143 292.955 14.3965 292.523 14.9609C292.097 15.5199 291.884 16.3306 291.884 17.3931V17.6836C291.884 18.7184 292.097 19.5153 292.523 20.0742C292.95 20.6331 293.558 20.9126 294.35 20.9126ZM301.564 22H300.028V9.25H301.564V22ZM303.873 17.4263C303.873 16.5464 304.044 15.755 304.387 15.0522C304.736 14.3494 305.217 13.8071 305.832 13.4253C306.451 13.0435 307.157 12.8525 307.948 12.8525C309.171 12.8525 310.159 13.2759 310.912 14.1226C311.67 14.9692 312.049 16.0954 312.049 17.501V17.6089C312.049 18.4832 311.88 19.269 311.542 19.9663C311.21 20.658 310.732 21.1976 310.106 21.585C309.487 21.9723 308.773 22.166 307.965 22.166C306.747 22.166 305.76 21.7427 305.001 20.896C304.249 20.0493 303.873 18.9287 303.873 17.5342V17.4263ZM305.417 17.6089C305.417 18.605 305.646 19.4046 306.105 20.0078C306.57 20.611 307.19 20.9126 307.965 20.9126C308.745 20.9126 309.365 20.6082 309.824 19.9995C310.284 19.3853 310.513 18.5275 310.513 17.4263C310.513 16.4412 310.278 15.6444 309.808 15.0356C309.343 14.4214 308.723 14.1143 307.948 14.1143C307.19 14.1143 306.579 14.4159 306.114 15.019C305.649 15.6222 305.417 16.4855 305.417 17.6089ZM319.454 19.6177C319.454 19.2026 319.296 18.8817 318.981 18.6548C318.671 18.4224 318.126 18.2231 317.346 18.0571C316.571 17.8911 315.954 17.6919 315.495 17.4595C315.041 17.2271 314.703 16.9504 314.482 16.6294C314.266 16.3084 314.158 15.9266 314.158 15.4839C314.158 14.7479 314.468 14.1253 315.088 13.6162C315.713 13.1071 316.51 12.8525 317.479 12.8525C318.497 12.8525 319.321 13.1154 319.952 13.6411C320.589 14.1668 320.907 14.8392 320.907 15.6582H319.363C319.363 15.2376 319.183 14.8752 318.823 14.5708C318.469 14.2664 318.021 14.1143 317.479 14.1143C316.92 14.1143 316.482 14.236 316.167 14.4795C315.852 14.723 315.694 15.0412 315.694 15.4341C315.694 15.8049 315.84 16.0843 316.134 16.2725C316.427 16.4606 316.956 16.6405 317.719 16.812C318.488 16.9836 319.111 17.1883 319.587 17.4263C320.063 17.6642 320.414 17.952 320.641 18.2896C320.874 18.6216 320.99 19.0283 320.99 19.5098C320.99 20.3122 320.669 20.9569 320.027 21.4438C319.385 21.9253 318.552 22.166 317.528 22.166C316.809 22.166 316.173 22.0387 315.619 21.7842C315.066 21.5296 314.631 21.1755 314.316 20.7217C314.006 20.2624 313.851 19.7671 313.851 19.2358H315.387C315.414 19.7505 315.619 20.16 316.001 20.4644C316.388 20.7632 316.897 20.9126 317.528 20.9126C318.109 20.9126 318.574 20.7964 318.923 20.564C319.277 20.326 319.454 20.0106 319.454 19.6177ZM328.785 21.1118C328.188 21.8146 327.31 22.166 326.154 22.166C325.196 22.166 324.466 21.8893 323.962 21.3359C323.464 20.777 323.213 19.9525 323.207 18.8623V13.0186H324.743V18.8208C324.743 20.1821 325.296 20.8628 326.403 20.8628C327.576 20.8628 328.356 20.4256 328.744 19.5513V13.0186H330.279V22H328.818L328.785 21.1118ZM337.211 14.3965C336.979 14.3577 336.727 14.3384 336.456 14.3384C335.449 14.3384 334.765 14.7673 334.406 15.625V22H332.87V13.0186H334.364L334.389 14.0562C334.893 13.2537 335.607 12.8525 336.531 12.8525C336.83 12.8525 337.056 12.8913 337.211 12.9688V14.3965ZM342.442 22.166C341.224 22.166 340.234 21.7676 339.47 20.9707C338.707 20.1683 338.325 19.0975 338.325 17.7583V17.4761C338.325 16.5851 338.493 15.791 338.831 15.0938C339.174 14.391 339.65 13.8431 340.259 13.4502C340.873 13.0518 341.537 12.8525 342.251 12.8525C343.419 12.8525 344.326 13.2371 344.974 14.0063C345.621 14.7756 345.945 15.8768 345.945 17.3101V17.9492H339.86C339.882 18.8346 340.14 19.5513 340.632 20.0991C341.13 20.6414 341.761 20.9126 342.525 20.9126C343.067 20.9126 343.527 20.8019 343.903 20.5806C344.279 20.3592 344.608 20.0659 344.891 19.7007L345.829 20.4312C345.076 21.5877 343.947 22.166 342.442 22.166ZM342.251 14.1143C341.631 14.1143 341.111 14.3411 340.69 14.7949C340.27 15.2432 340.01 15.874 339.91 16.6875H344.409V16.5713C344.365 15.791 344.155 15.1878 343.778 14.7617C343.402 14.3301 342.893 14.1143 342.251 14.1143ZM353.209 19.6177C353.209 19.2026 353.051 18.8817 352.736 18.6548C352.426 18.4224 351.881 18.2231 351.101 18.0571C350.326 17.8911 349.709 17.6919 349.25 17.4595C348.796 17.2271 348.458 16.9504 348.237 16.6294C348.021 16.3084 347.913 15.9266 347.913 15.4839C347.913 14.7479 348.223 14.1253 348.843 13.6162C349.468 13.1071 350.265 12.8525 351.233 12.8525C352.252 12.8525 353.076 13.1154 353.707 13.6411C354.343 14.1668 354.662 14.8392 354.662 15.6582H353.118C353.118 15.2376 352.938 14.8752 352.578 14.5708C352.224 14.2664 351.776 14.1143 351.233 14.1143C350.674 14.1143 350.237 14.236 349.922 14.4795C349.606 14.723 349.449 15.0412 349.449 15.4341C349.449 15.8049 349.595 16.0843 349.889 16.2725C350.182 16.4606 350.71 16.6405 351.474 16.812C352.243 16.9836 352.866 17.1883 353.342 17.4263C353.818 17.6642 354.169 17.952 354.396 18.2896C354.628 18.6216 354.745 19.0283 354.745 19.5098C354.745 20.3122 354.424 20.9569 353.782 21.4438C353.14 21.9253 352.307 22.166 351.283 22.166C350.564 22.166 349.927 22.0387 349.374 21.7842C348.821 21.5296 348.386 21.1755 348.071 20.7217C347.761 20.2624 347.606 19.7671 347.606 19.2358H349.142C349.169 19.7505 349.374 20.16 349.756 20.4644C350.143 20.7632 350.652 20.9126 351.283 20.9126C351.864 20.9126 352.329 20.7964 352.678 20.564C353.032 20.326 353.209 20.0106 353.209 19.6177Z" fill="#6F787E"/>
<defs>
<clipPath id="clip0_0_97">
<rect width="28" height="28" fill="white" transform="translate(0 1)"/>
</clipPath>
</defs>
</svg>
