<svg width="68" height="30" viewBox="0 0 68 30" fill="none" xmlns="http://www.w3.org/2000/svg">
<path d="M3.00488 19.6968H8.73242V21H1.40283V8.91406H3.00488V19.6968ZM14.2866 21.166C13.0692 21.166 12.0786 20.7676 11.3149 19.9707C10.5513 19.1683 10.1694 18.0975 10.1694 16.7583V16.4761C10.1694 15.5851 10.3382 14.791 10.6758 14.0938C11.0189 13.391 11.4948 12.8431 12.1035 12.4502C12.7178 12.0518 13.3818 11.8525 14.0957 11.8525C15.2633 11.8525 16.1709 12.2371 16.8184 13.0063C17.4658 13.7756 17.7896 14.8768 17.7896 16.3101V16.9492H11.7051C11.7272 17.8346 11.9845 18.5513 12.4771 19.0991C12.9751 19.6414 13.606 19.9126 14.3696 19.9126C14.9119 19.9126 15.3713 19.8019 15.7476 19.5806C16.1239 19.3592 16.4531 19.0659 16.7354 18.7007L17.6733 19.4312C16.9207 20.5877 15.7918 21.166 14.2866 21.166ZM14.0957 13.1143C13.4759 13.1143 12.9557 13.3411 12.5352 13.7949C12.1146 14.2432 11.8545 14.874 11.7549 15.6875H16.2539V15.5713C16.2096 14.791 15.9993 14.1878 15.623 13.7617C15.2467 13.3301 14.7376 13.1143 14.0957 13.1143ZM25.3691 21C25.2806 20.8229 25.2087 20.5075 25.1533 20.0537C24.4395 20.7952 23.5872 21.166 22.5967 21.166C21.7113 21.166 20.9836 20.917 20.4136 20.4189C19.8491 19.9154 19.5669 19.279 19.5669 18.5098C19.5669 17.5745 19.9211 16.8496 20.6294 16.335C21.3433 15.8148 22.3449 15.5547 23.6343 15.5547H25.1284V14.8491C25.1284 14.3123 24.9679 13.8862 24.647 13.5708C24.326 13.2498 23.8529 13.0894 23.2275 13.0894C22.6797 13.0894 22.2204 13.2277 21.8496 13.5044C21.4788 13.7811 21.2935 14.1159 21.2935 14.5088H19.7495C19.7495 14.0605 19.9072 13.6289 20.2227 13.2139C20.5436 12.7933 20.9753 12.4613 21.5176 12.2178C22.0654 11.9743 22.6659 11.8525 23.3188 11.8525C24.3537 11.8525 25.1644 12.1126 25.751 12.6328C26.3376 13.1475 26.6419 13.8586 26.6641 14.7661V18.8999C26.6641 19.7244 26.7692 20.3802 26.9795 20.8672V21H25.3691ZM22.8208 19.8296C23.3022 19.8296 23.7588 19.7051 24.1904 19.4561C24.6221 19.207 24.9347 18.8833 25.1284 18.4849V16.6421H23.9248C22.0433 16.6421 21.1025 17.1927 21.1025 18.2939C21.1025 18.7754 21.263 19.1517 21.584 19.4229C21.9049 19.694 22.3172 19.8296 22.8208 19.8296ZM33.6626 13.3965C33.4302 13.3577 33.1784 13.3384 32.9072 13.3384C31.9001 13.3384 31.2166 13.7673 30.8569 14.625V21H29.3213V12.0186H30.8154L30.8403 13.0562C31.3439 12.2537 32.0578 11.8525 32.9819 11.8525C33.2808 11.8525 33.5076 11.8913 33.6626 11.9688V13.3965ZM36.7847 12.0186L36.8345 13.1475C37.5207 12.2842 38.4172 11.8525 39.5239 11.8525C41.422 11.8525 42.3794 12.9233 42.396 15.0649V21H40.8604V15.0566C40.8548 14.4092 40.7054 13.9305 40.4121 13.6206C40.1243 13.3107 39.6733 13.1558 39.0591 13.1558C38.561 13.1558 38.1239 13.2886 37.7476 13.5542C37.3713 13.8198 37.078 14.1685 36.8677 14.6001V21H35.332V12.0186H36.7847Z" fill="black"/>
<path d="M57.41 7L62 11.58L66.59 7L68 8.41L62 14.41L56 8.41L57.41 7Z" fill="black"/>
</svg>
