<svg width="98" height="30" viewBox="0 0 98 30" fill="none" xmlns="http://www.w3.org/2000/svg">
<path d="M87.41 7L92 11.58L96.59 7L98 8.41L92 14.41L86 8.41L87.41 7Z" fill="black"/>
<path d="M3.17285 15.9902V21H1.48535V8.20312H6.20508C7.60547 8.20312 8.70117 8.56055 9.49219 9.27539C10.2891 9.99023 10.6875 10.9365 10.6875 12.1143C10.6875 13.3564 10.2979 14.3145 9.51855 14.9883C8.74512 15.6562 7.63477 15.9902 6.1875 15.9902H3.17285ZM3.17285 14.6104H6.20508C7.10742 14.6104 7.79883 14.3994 8.2793 13.9775C8.75977 13.5498 9 12.9346 9 12.1318C9 11.3701 8.75977 10.7607 8.2793 10.3037C7.79883 9.84668 7.13965 9.60938 6.30176 9.5918H3.17285V14.6104ZM17.4326 12.9492C17.1865 12.9082 16.9199 12.8877 16.6328 12.8877C15.5664 12.8877 14.8428 13.3418 14.4619 14.25V21H12.8359V11.4902H14.418L14.4443 12.5889C14.9775 11.7393 15.7334 11.3145 16.7119 11.3145C17.0283 11.3145 17.2686 11.3555 17.4326 11.4375V12.9492ZM18.5791 16.1572C18.5791 15.2256 18.7607 14.3877 19.124 13.6436C19.4932 12.8994 20.0029 12.3252 20.6533 11.9209C21.3096 11.5166 22.0566 11.3145 22.8945 11.3145C24.1895 11.3145 25.2354 11.7627 26.0322 12.6592C26.835 13.5557 27.2363 14.748 27.2363 16.2363V16.3506C27.2363 17.2764 27.0576 18.1084 26.7002 18.8467C26.3486 19.5791 25.8418 20.1504 25.1797 20.5605C24.5234 20.9707 23.7676 21.1758 22.9121 21.1758C21.623 21.1758 20.5771 20.7275 19.7744 19.8311C18.9775 18.9346 18.5791 17.748 18.5791 16.2715V16.1572ZM20.2139 16.3506C20.2139 17.4053 20.457 18.252 20.9434 18.8906C21.4355 19.5293 22.0918 19.8486 22.9121 19.8486C23.7383 19.8486 24.3945 19.5264 24.8809 18.8818C25.3672 18.2314 25.6104 17.3232 25.6104 16.1572C25.6104 15.1143 25.3613 14.2705 24.8633 13.626C24.3711 12.9756 23.7148 12.6504 22.8945 12.6504C22.0918 12.6504 21.4443 12.9697 20.9521 13.6084C20.46 14.2471 20.2139 15.1611 20.2139 16.3506ZM29.1299 16.166C29.1299 14.707 29.4756 13.5352 30.167 12.6504C30.8584 11.7598 31.7637 11.3145 32.8828 11.3145C33.9961 11.3145 34.8779 11.6953 35.5283 12.457V7.5H37.1543V21H35.6602L35.5811 19.9805C34.9307 20.7773 34.0254 21.1758 32.8652 21.1758C31.7637 21.1758 30.8643 20.7246 30.167 19.8223C29.4756 18.9199 29.1299 17.7422 29.1299 16.2891V16.166ZM30.7559 16.3506C30.7559 17.4287 30.9785 18.2725 31.4238 18.8818C31.8691 19.4912 32.4844 19.7959 33.2695 19.7959C34.3008 19.7959 35.0537 19.333 35.5283 18.4072V14.0391C35.042 13.1426 34.2949 12.6943 33.2871 12.6943C32.4902 12.6943 31.8691 13.002 31.4238 13.6172C30.9785 14.2324 30.7559 15.1436 30.7559 16.3506ZM45.8066 20.0596C45.1738 20.8037 44.2451 21.1758 43.0205 21.1758C42.0068 21.1758 41.2334 20.8828 40.7002 20.2969C40.1729 19.7051 39.9062 18.832 39.9004 17.6777V11.4902H41.5264V17.6338C41.5264 19.0752 42.1123 19.7959 43.2842 19.7959C44.5264 19.7959 45.3525 19.333 45.7627 18.4072V11.4902H47.3887V21H45.8418L45.8066 20.0596ZM53.9316 19.8486C54.5117 19.8486 55.0186 19.6729 55.4521 19.3213C55.8857 18.9697 56.126 18.5303 56.1729 18.0029H57.7109C57.6816 18.5479 57.4941 19.0664 57.1484 19.5586C56.8027 20.0508 56.3398 20.4434 55.7598 20.7363C55.1855 21.0293 54.5762 21.1758 53.9316 21.1758C52.6367 21.1758 51.6055 20.7451 50.8379 19.8838C50.0762 19.0166 49.6953 17.833 49.6953 16.333V16.0605C49.6953 15.1348 49.8652 14.3115 50.2051 13.5908C50.5449 12.8701 51.0312 12.3105 51.6641 11.9121C52.3027 11.5137 53.0557 11.3145 53.9229 11.3145C54.9893 11.3145 55.874 11.6338 56.5771 12.2725C57.2861 12.9111 57.6641 13.7402 57.7109 14.7598H56.1729C56.126 14.1445 55.8916 13.6406 55.4697 13.248C55.0537 12.8496 54.5381 12.6504 53.9229 12.6504C53.0967 12.6504 52.4551 12.9492 51.998 13.5469C51.5469 14.1387 51.3213 14.9971 51.3213 16.1221V16.4297C51.3213 17.5254 51.5469 18.3691 51.998 18.9609C52.4492 19.5527 53.0938 19.8486 53.9316 19.8486ZM61.9951 9.1875V11.4902H63.7705V12.7471H61.9951V18.6445C61.9951 19.0254 62.0742 19.3125 62.2324 19.5059C62.3906 19.6934 62.6602 19.7871 63.041 19.7871C63.2285 19.7871 63.4863 19.752 63.8145 19.6816V21C63.3867 21.1172 62.9707 21.1758 62.5664 21.1758C61.8398 21.1758 61.292 20.9561 60.9229 20.5166C60.5537 20.0771 60.3691 19.4531 60.3691 18.6445V12.7471H58.6377V11.4902H60.3691V9.1875H61.9951ZM71.4648 18.4775C71.4648 18.0381 71.2979 17.6982 70.9639 17.458C70.6357 17.2119 70.0586 17.001 69.2324 16.8252C68.4121 16.6494 67.7588 16.4385 67.2725 16.1924C66.792 15.9463 66.4346 15.6533 66.2002 15.3135C65.9717 14.9736 65.8574 14.5693 65.8574 14.1006C65.8574 13.3213 66.1855 12.6621 66.8418 12.123C67.5039 11.584 68.3477 11.3145 69.373 11.3145C70.4512 11.3145 71.3242 11.5928 71.9922 12.1494C72.666 12.7061 73.0029 13.418 73.0029 14.2852H71.3682C71.3682 13.8398 71.1777 13.4561 70.7969 13.1338C70.4219 12.8115 69.9473 12.6504 69.373 12.6504C68.7812 12.6504 68.3184 12.7793 67.9844 13.0371C67.6504 13.2949 67.4834 13.6318 67.4834 14.0479C67.4834 14.4404 67.6387 14.7363 67.9492 14.9355C68.2598 15.1348 68.8193 15.3252 69.6279 15.5068C70.4424 15.6885 71.1016 15.9053 71.6055 16.1572C72.1094 16.4092 72.4814 16.7139 72.7217 17.0713C72.9678 17.4229 73.0908 17.8535 73.0908 18.3633C73.0908 19.2129 72.751 19.8955 72.0713 20.4111C71.3916 20.9209 70.5098 21.1758 69.4258 21.1758C68.6641 21.1758 67.9902 21.041 67.4043 20.7715C66.8184 20.502 66.3584 20.127 66.0244 19.6465C65.6963 19.1602 65.5322 18.6357 65.5322 18.0732H67.1582C67.1875 18.6182 67.4043 19.0518 67.8086 19.374C68.2188 19.6904 68.7578 19.8486 69.4258 19.8486C70.041 19.8486 70.5332 19.7256 70.9023 19.4795C71.2773 19.2275 71.4648 18.8936 71.4648 18.4775Z" fill="black"/>
</svg>
