<svg width="492" height="64" viewBox="0 0 492 64" fill="none" xmlns="http://www.w3.org/2000/svg">
<path d="M0 32C0 14.3269 14.3269 0 32 0H460C477.673 0 492 14.3269 492 32C492 49.6731 477.673 64 460 64H32C14.3269 64 0 49.6731 0 32Z" fill="#1E2124"/>
<g clip-path="url(#clip0_0_34)">
<path d="M325 32C325 24.268 331.268 18 339 18H466C473.732 18 480 24.268 480 32C480 39.732 473.732 46 466 46H339C331.268 46 325 39.732 325 32Z" fill="#00C805"/>
<path d="M373.685 34.6426C373.685 34.1445 373.509 33.7637 373.157 33.5C372.806 33.2305 372.173 32.9492 371.259 32.6562C370.345 32.3574 369.621 32.0645 369.088 31.7773C367.635 30.9922 366.908 29.9346 366.908 28.6045C366.908 27.9131 367.102 27.2979 367.488 26.7588C367.881 26.2139 368.44 25.7891 369.167 25.4844C369.899 25.1797 370.72 25.0273 371.628 25.0273C372.542 25.0273 373.356 25.1943 374.071 25.5283C374.786 25.8564 375.34 26.3223 375.732 26.9258C376.131 27.5293 376.33 28.2148 376.33 28.9824H373.693C373.693 28.3965 373.509 27.9424 373.14 27.6201C372.771 27.292 372.252 27.1279 371.584 27.1279C370.939 27.1279 370.438 27.2656 370.081 27.541C369.724 27.8105 369.545 28.168 369.545 28.6133C369.545 29.0293 369.753 29.3779 370.169 29.6592C370.591 29.9404 371.209 30.2041 372.023 30.4502C373.523 30.9014 374.616 31.4609 375.302 32.1289C375.987 32.7969 376.33 33.6289 376.33 34.625C376.33 35.7324 375.911 36.6025 375.073 37.2354C374.235 37.8623 373.107 38.1758 371.689 38.1758C370.705 38.1758 369.809 37.9971 369 37.6396C368.191 37.2764 367.573 36.7812 367.146 36.1543C366.724 35.5273 366.513 34.8008 366.513 33.9746H369.158C369.158 35.3867 370.002 36.0928 371.689 36.0928C372.316 36.0928 372.806 35.9668 373.157 35.7148C373.509 35.457 373.685 35.0996 373.685 34.6426ZM383.901 37.0332C383.274 37.7949 382.407 38.1758 381.3 38.1758C380.28 38.1758 379.501 37.8828 378.962 37.2969C378.429 36.7109 378.156 35.8525 378.145 34.7217V28.4902H380.685V34.6338C380.685 35.624 381.136 36.1191 382.038 36.1191C382.899 36.1191 383.491 35.8203 383.813 35.2227V28.4902H386.362V38H383.972L383.901 37.0332ZM397.098 33.333C397.098 34.8564 396.772 36.0459 396.122 36.9014C395.472 37.751 394.563 38.1758 393.397 38.1758C392.366 38.1758 391.543 37.7803 390.928 36.9893L390.813 38H388.528V24.5H391.068V29.3428C391.654 28.6572 392.425 28.3145 393.38 28.3145C394.54 28.3145 395.448 28.7422 396.104 29.5977C396.767 30.4473 397.098 31.6455 397.098 33.1924V33.333ZM394.558 33.1484C394.558 32.1875 394.405 31.4873 394.101 31.0479C393.796 30.6025 393.342 30.3799 392.738 30.3799C391.93 30.3799 391.373 30.7109 391.068 31.373V35.126C391.379 35.7939 391.941 36.1279 392.756 36.1279C393.576 36.1279 394.115 35.7236 394.373 34.915C394.496 34.5283 394.558 33.9395 394.558 33.1484ZM404.071 35.3721C404.071 35.0615 403.916 34.8184 403.605 34.6426C403.301 34.4609 402.809 34.2998 402.129 34.1592C399.867 33.6846 398.736 32.7236 398.736 31.2764C398.736 30.4326 399.085 29.7295 399.782 29.167C400.485 28.5986 401.402 28.3145 402.533 28.3145C403.74 28.3145 404.704 28.5986 405.425 29.167C406.151 29.7354 406.515 30.4736 406.515 31.3818H403.975C403.975 31.0186 403.857 30.7197 403.623 30.4854C403.389 30.2451 403.022 30.125 402.524 30.125C402.097 30.125 401.766 30.2217 401.531 30.415C401.297 30.6084 401.18 30.8545 401.18 31.1533C401.18 31.4346 401.312 31.6631 401.575 31.8389C401.845 32.0088 402.296 32.1582 402.929 32.2871C403.562 32.4102 404.095 32.5508 404.528 32.709C405.87 33.2012 406.541 34.0537 406.541 35.2666C406.541 36.1338 406.169 36.8369 405.425 37.376C404.681 37.9092 403.72 38.1758 402.542 38.1758C401.745 38.1758 401.036 38.0352 400.415 37.7539C399.8 37.4668 399.316 37.0771 398.965 36.585C398.613 36.0869 398.438 35.5508 398.438 34.9766H400.846C400.869 35.4277 401.036 35.7734 401.347 36.0137C401.657 36.2539 402.073 36.374 402.595 36.374C403.081 36.374 403.447 36.2832 403.693 36.1016C403.945 35.9141 404.071 35.6709 404.071 35.3721ZM412.39 36.1279C412.858 36.1279 413.239 35.999 413.532 35.7412C413.825 35.4834 413.978 35.1406 413.989 34.7129H416.371C416.365 35.3574 416.189 35.9492 415.844 36.4883C415.498 37.0215 415.023 37.4375 414.42 37.7363C413.822 38.0293 413.16 38.1758 412.434 38.1758C411.074 38.1758 410.002 37.7451 409.217 36.8838C408.432 36.0166 408.039 34.8213 408.039 33.2979V33.1309C408.039 31.666 408.429 30.4971 409.208 29.624C409.987 28.751 411.057 28.3145 412.416 28.3145C413.605 28.3145 414.558 28.6543 415.272 29.334C415.993 30.0078 416.359 30.9072 416.371 32.0322H413.989C413.978 31.54 413.825 31.1416 413.532 30.8369C413.239 30.5264 412.853 30.3711 412.372 30.3711C411.78 30.3711 411.332 30.5879 411.027 31.0215C410.729 31.4492 410.579 32.1465 410.579 33.1133V33.377C410.579 34.3555 410.729 35.0586 411.027 35.4863C411.326 35.9141 411.78 36.1279 412.39 36.1279ZM423.415 30.8721C423.069 30.8252 422.765 30.8018 422.501 30.8018C421.54 30.8018 420.91 31.127 420.611 31.7773V38H418.071V28.4902H420.471L420.541 29.624C421.051 28.751 421.757 28.3145 422.659 28.3145C422.94 28.3145 423.204 28.3525 423.45 28.4287L423.415 30.8721ZM427.576 38H425.027V28.4902H427.576V38ZM424.878 26.0293C424.878 25.6484 425.004 25.335 425.256 25.0889C425.514 24.8428 425.862 24.7197 426.302 24.7197C426.735 24.7197 427.081 24.8428 427.339 25.0889C427.597 25.335 427.726 25.6484 427.726 26.0293C427.726 26.416 427.594 26.7324 427.33 26.9785C427.072 27.2246 426.729 27.3477 426.302 27.3477C425.874 27.3477 425.528 27.2246 425.265 26.9785C425.007 26.7324 424.878 26.416 424.878 26.0293ZM438.496 33.333C438.496 34.8564 438.171 36.0459 437.521 36.9014C436.87 37.751 435.962 38.1758 434.796 38.1758C433.765 38.1758 432.941 37.7803 432.326 36.9893L432.212 38H429.927V24.5H432.467V29.3428C433.053 28.6572 433.823 28.3145 434.778 28.3145C435.938 28.3145 436.847 28.7422 437.503 29.5977C438.165 30.4473 438.496 31.6455 438.496 33.1924V33.333ZM435.956 33.1484C435.956 32.1875 435.804 31.4873 435.499 31.0479C435.194 30.6025 434.74 30.3799 434.137 30.3799C433.328 30.3799 432.771 30.7109 432.467 31.373V35.126C432.777 35.7939 433.34 36.1279 434.154 36.1279C434.975 36.1279 435.514 35.7236 435.771 34.915C435.895 34.5283 435.956 33.9395 435.956 33.1484ZM402.983 66.1758C401.589 66.1758 400.452 65.748 399.573 64.8926C398.7 64.0371 398.264 62.8975 398.264 61.4736V61.2275C398.264 60.2725 398.448 59.4199 398.817 58.6699C399.187 57.9141 399.708 57.334 400.382 56.9297C401.062 56.5195 401.835 56.3145 402.702 56.3145C404.003 56.3145 405.025 56.7246 405.77 57.5449C406.52 58.3652 406.895 59.5283 406.895 61.0342V62.0713H400.839C400.921 62.6924 401.167 63.1904 401.577 63.5654C401.993 63.9404 402.518 64.1279 403.15 64.1279C404.129 64.1279 404.894 63.7734 405.444 63.0645L406.692 64.4619C406.312 65.001 405.796 65.4229 405.146 65.7275C404.495 66.0264 403.774 66.1758 402.983 66.1758ZM402.693 58.3711C402.189 58.3711 401.779 58.541 401.463 58.8809C401.152 59.2207 400.953 59.707 400.865 60.3398H404.398V60.1377C404.387 59.5752 404.234 59.1416 403.941 58.8369C403.648 58.5264 403.232 58.3711 402.693 58.3711Z" fill="black"/>
</g>
<path d="M46.8301 28.4902L46.8828 29.6855C47.6094 28.7715 48.5586 28.3145 49.7305 28.3145C51.7402 28.3145 52.7539 29.4482 52.7715 31.7158V38H51.1455V31.707C51.1396 31.0215 50.9814 30.5146 50.6709 30.1865C50.3662 29.8584 49.8887 29.6943 49.2383 29.6943C48.7109 29.6943 48.248 29.835 47.8496 30.1162C47.4512 30.3975 47.1406 30.7666 46.918 31.2236V38H45.292V28.4902H46.8301ZM61.3447 38C61.251 37.8125 61.1748 37.4785 61.1162 36.998C60.3604 37.7832 59.458 38.1758 58.4092 38.1758C57.4717 38.1758 56.7012 37.9121 56.0977 37.3848C55.5 36.8516 55.2012 36.1777 55.2012 35.3633C55.2012 34.373 55.5762 33.6055 56.3262 33.0605C57.082 32.5098 58.1426 32.2344 59.5078 32.2344H61.0898V31.4873C61.0898 30.9189 60.9199 30.4678 60.5801 30.1338C60.2402 29.7939 59.7393 29.624 59.0771 29.624C58.4971 29.624 58.0107 29.7705 57.6182 30.0635C57.2256 30.3564 57.0293 30.7109 57.0293 31.127H55.3945C55.3945 30.6523 55.5615 30.1953 55.8955 29.7559C56.2354 29.3105 56.6924 28.959 57.2666 28.7012C57.8467 28.4434 58.4824 28.3145 59.1738 28.3145C60.2695 28.3145 61.1279 28.5898 61.749 29.1406C62.3701 29.6855 62.6924 30.4385 62.7158 31.3994V35.7764C62.7158 36.6494 62.8271 37.3438 63.0498 37.8594V38H61.3447ZM58.6465 36.7607C59.1562 36.7607 59.6396 36.6289 60.0967 36.3652C60.5537 36.1016 60.8848 35.7588 61.0898 35.3369V33.3857H59.8154C57.8232 33.3857 56.8271 33.9688 56.8271 35.1348C56.8271 35.6445 56.9971 36.043 57.3369 36.3301C57.6768 36.6172 58.1133 36.7607 58.6465 36.7607ZM67.0439 28.4902L67.0879 29.5449C67.7852 28.7246 68.7256 28.3145 69.9092 28.3145C71.2393 28.3145 72.1445 28.8242 72.625 29.8438C72.9414 29.3867 73.3516 29.0176 73.8555 28.7363C74.3652 28.4551 74.9658 28.3145 75.6572 28.3145C77.7432 28.3145 78.8037 29.4189 78.8389 31.6279V38H77.2129V31.7246C77.2129 31.0449 77.0576 30.5381 76.7471 30.2041C76.4365 29.8643 75.915 29.6943 75.1826 29.6943C74.5791 29.6943 74.0781 29.876 73.6797 30.2393C73.2812 30.5967 73.0498 31.0801 72.9854 31.6895V38H71.3506V31.7686C71.3506 30.3857 70.6738 29.6943 69.3203 29.6943C68.2539 29.6943 67.5244 30.1484 67.1318 31.0566V38H65.5059V28.4902H67.0439ZM85.4961 38.1758C84.207 38.1758 83.1582 37.7539 82.3496 36.9102C81.541 36.0605 81.1367 34.9268 81.1367 33.5088V33.21C81.1367 32.2666 81.3154 31.4258 81.6729 30.6875C82.0361 29.9434 82.54 29.3633 83.1846 28.9473C83.835 28.5254 84.5381 28.3145 85.2939 28.3145C86.5303 28.3145 87.4912 28.7217 88.1768 29.5361C88.8623 30.3506 89.2051 31.5166 89.2051 33.0342V33.7109H82.7627C82.7861 34.6484 83.0586 35.4072 83.5801 35.9873C84.1074 36.5615 84.7754 36.8486 85.584 36.8486C86.1582 36.8486 86.6445 36.7314 87.043 36.4971C87.4414 36.2627 87.79 35.9521 88.0889 35.5654L89.082 36.3389C88.2852 37.5635 87.0898 38.1758 85.4961 38.1758ZM85.2939 29.6504C84.6377 29.6504 84.0869 29.8906 83.6416 30.3711C83.1963 30.8457 82.9209 31.5137 82.8154 32.375H87.5791V32.252C87.5322 31.4258 87.3096 30.7871 86.9111 30.3359C86.5127 29.8789 85.9736 29.6504 85.2939 29.6504ZM105.39 33.5879C105.319 35.0059 104.968 36.125 104.335 36.9453C103.702 37.7656 102.855 38.1758 101.795 38.1758C100.699 38.1758 99.9961 37.6836 99.6855 36.6992C99.3691 37.1973 99.0059 37.5693 98.5957 37.8154C98.1914 38.0557 97.7725 38.1758 97.3389 38.1758C96.5068 38.1758 95.877 37.8359 95.4492 37.1562C95.0215 36.4766 94.8633 35.5361 94.9746 34.335C95.0625 33.3682 95.2822 32.5068 95.6338 31.751C95.9912 30.9893 96.4482 30.3916 97.0049 29.958C97.5674 29.5244 98.1562 29.3076 98.7715 29.3076C99.2461 29.3076 99.6709 29.3721 100.046 29.501C100.421 29.624 100.843 29.8701 101.312 30.2393L100.854 35.1084C100.743 36.4619 101.118 37.1387 101.979 37.1387C102.642 37.1387 103.178 36.8105 103.588 36.1543C103.998 35.498 104.221 34.6426 104.256 33.5879C104.367 31.3086 103.942 29.5713 102.981 28.376C102.026 27.1807 100.57 26.583 98.6133 26.583C97.4355 26.583 96.3896 26.876 95.4756 27.4619C94.5615 28.042 93.8408 28.8828 93.3135 29.9844C92.7861 31.0859 92.4902 32.3574 92.4258 33.7988C92.3555 35.252 92.5312 36.5146 92.9531 37.5869C93.375 38.6533 94.0166 39.4678 94.8779 40.0303C95.7451 40.5986 96.791 40.8828 98.0156 40.8828C98.543 40.8828 99.0703 40.8184 99.5977 40.6895C100.131 40.5605 100.573 40.3936 100.925 40.1885L101.25 41.1992C100.887 41.4277 100.403 41.6152 99.7998 41.7617C99.2021 41.9082 98.5957 41.9814 97.9805 41.9814C96.5156 41.9814 95.2559 41.6504 94.2012 40.9883C93.1465 40.332 92.3555 39.3828 91.8281 38.1406C91.3066 36.9043 91.0811 35.457 91.1514 33.7988C91.2217 32.1875 91.582 30.7402 92.2324 29.457C92.8828 28.168 93.7646 27.1748 94.8779 26.4775C95.9912 25.7744 97.248 25.4229 98.6484 25.4229C100.107 25.4229 101.358 25.751 102.401 26.4072C103.444 27.0635 104.221 28.0098 104.73 29.2461C105.24 30.4824 105.46 31.9297 105.39 33.5879ZM96.3721 34.335C96.29 35.167 96.3662 35.8057 96.6006 36.251C96.8408 36.6963 97.2188 36.9189 97.7344 36.9189C98.0859 36.9189 98.4229 36.7695 98.7451 36.4707C99.0732 36.1719 99.3428 35.7441 99.5537 35.1875L99.5625 35.1084L99.9668 30.6875C99.6387 30.5176 99.2871 30.4326 98.9121 30.4326C98.2266 30.4326 97.6582 30.7812 97.207 31.4785C96.7617 32.1758 96.4834 33.1279 96.3721 34.335ZM111.713 38.1758C110.424 38.1758 109.375 37.7539 108.566 36.9102C107.758 36.0605 107.354 34.9268 107.354 33.5088V33.21C107.354 32.2666 107.532 31.4258 107.89 30.6875C108.253 29.9434 108.757 29.3633 109.401 28.9473C110.052 28.5254 110.755 28.3145 111.511 28.3145C112.747 28.3145 113.708 28.7217 114.394 29.5361C115.079 30.3506 115.422 31.5166 115.422 33.0342V33.7109H108.979C109.003 34.6484 109.275 35.4072 109.797 35.9873C110.324 36.5615 110.992 36.8486 111.801 36.8486C112.375 36.8486 112.861 36.7314 113.26 36.4971C113.658 36.2627 114.007 35.9521 114.306 35.5654L115.299 36.3389C114.502 37.5635 113.307 38.1758 111.713 38.1758ZM111.511 29.6504C110.854 29.6504 110.304 29.8906 109.858 30.3711C109.413 30.8457 109.138 31.5137 109.032 32.375H113.796V32.252C113.749 31.4258 113.526 30.7871 113.128 30.3359C112.729 29.8789 112.19 29.6504 111.511 29.6504ZM119.091 28.4902L119.135 29.5449C119.832 28.7246 120.772 28.3145 121.956 28.3145C123.286 28.3145 124.191 28.8242 124.672 29.8438C124.988 29.3867 125.398 29.0176 125.902 28.7363C126.412 28.4551 127.013 28.3145 127.704 28.3145C129.79 28.3145 130.851 29.4189 130.886 31.6279V38H129.26V31.7246C129.26 31.0449 129.104 30.5381 128.794 30.2041C128.483 29.8643 127.962 29.6943 127.229 29.6943C126.626 29.6943 126.125 29.876 125.727 30.2393C125.328 30.5967 125.097 31.0801 125.032 31.6895V38H123.397V31.7686C123.397 30.3857 122.721 29.6943 121.367 29.6943C120.301 29.6943 119.571 30.1484 119.179 31.0566V38H117.553V28.4902H119.091ZM139.468 38C139.374 37.8125 139.298 37.4785 139.239 36.998C138.483 37.7832 137.581 38.1758 136.532 38.1758C135.595 38.1758 134.824 37.9121 134.221 37.3848C133.623 36.8516 133.324 36.1777 133.324 35.3633C133.324 34.373 133.699 33.6055 134.449 33.0605C135.205 32.5098 136.266 32.2344 137.631 32.2344H139.213V31.4873C139.213 30.9189 139.043 30.4678 138.703 30.1338C138.363 29.7939 137.862 29.624 137.2 29.624C136.62 29.624 136.134 29.7705 135.741 30.0635C135.349 30.3564 135.152 30.7109 135.152 31.127H133.518C133.518 30.6523 133.685 30.1953 134.019 29.7559C134.358 29.3105 134.815 28.959 135.39 28.7012C135.97 28.4434 136.605 28.3145 137.297 28.3145C138.393 28.3145 139.251 28.5898 139.872 29.1406C140.493 29.6855 140.815 30.4385 140.839 31.3994V35.7764C140.839 36.6494 140.95 37.3438 141.173 37.8594V38H139.468ZM136.77 36.7607C137.279 36.7607 137.763 36.6289 138.22 36.3652C138.677 36.1016 139.008 35.7588 139.213 35.3369V33.3857H137.938C135.946 33.3857 134.95 33.9688 134.95 35.1348C134.95 35.6445 135.12 36.043 135.46 36.3301C135.8 36.6172 136.236 36.7607 136.77 36.7607ZM145.404 38H143.778V28.4902H145.404V38ZM143.646 25.9678C143.646 25.7041 143.726 25.4814 143.884 25.2998C144.048 25.1182 144.288 25.0273 144.604 25.0273C144.921 25.0273 145.161 25.1182 145.325 25.2998C145.489 25.4814 145.571 25.7041 145.571 25.9678C145.571 26.2314 145.489 26.4512 145.325 26.627C145.161 26.8027 144.921 26.8906 144.604 26.8906C144.288 26.8906 144.048 26.8027 143.884 26.627C143.726 26.4512 143.646 26.2314 143.646 25.9678ZM150.031 38H148.405V24.5H150.031V38ZM152.927 37.1475C152.927 36.8662 153.009 36.6318 153.173 36.4443C153.343 36.2568 153.595 36.1631 153.929 36.1631C154.263 36.1631 154.515 36.2568 154.685 36.4443C154.86 36.6318 154.948 36.8662 154.948 37.1475C154.948 37.417 154.86 37.6426 154.685 37.8242C154.515 38.0059 154.263 38.0967 153.929 38.0967C153.595 38.0967 153.343 38.0059 153.173 37.8242C153.009 37.6426 152.927 37.417 152.927 37.1475ZM162.484 29.9492C162.238 29.9082 161.972 29.8877 161.685 29.8877C160.618 29.8877 159.895 30.3418 159.514 31.25V38H157.888V28.4902H159.47L159.496 29.5889C160.029 28.7393 160.785 28.3145 161.764 28.3145C162.08 28.3145 162.32 28.3555 162.484 28.4375V29.9492ZM170.108 37.0596C169.476 37.8037 168.547 38.1758 167.322 38.1758C166.309 38.1758 165.535 37.8828 165.002 37.2969C164.475 36.7051 164.208 35.832 164.202 34.6777V28.4902H165.828V34.6338C165.828 36.0752 166.414 36.7959 167.586 36.7959C168.828 36.7959 169.654 36.333 170.064 35.4072V28.4902H171.69V38H170.144L170.108 37.0596Z" fill="white" fill-opacity="0.5"/>
<defs>
<clipPath id="clip0_0_34">
<rect width="155" height="28" fill="white" transform="translate(325 18)"/>
</clipPath>
</defs>
</svg>
