<svg width="61" height="17" viewBox="0 0 61 17" fill="none" xmlns="http://www.w3.org/2000/svg">
<path d="M4.96387 7.61279C3.59701 7.21989 2.60091 6.73844 1.97559 6.16846C1.35579 5.59294 1.0459 4.8846 1.0459 4.04346C1.0459 3.09163 1.42497 2.30583 2.18311 1.68604C2.94678 1.06071 3.93734 0.748047 5.15479 0.748047C5.98486 0.748047 6.72363 0.908529 7.37109 1.22949C8.02409 1.55046 8.52767 1.99316 8.88184 2.55762C9.24154 3.12207 9.42139 3.7391 9.42139 4.40869H7.81934C7.81934 3.67822 7.58691 3.10547 7.12207 2.69043C6.65723 2.26986 6.00146 2.05957 5.15479 2.05957C4.36898 2.05957 3.75472 2.23389 3.31201 2.58252C2.87484 2.92562 2.65625 3.4043 2.65625 4.01855C2.65625 4.51107 2.86377 4.92887 3.27881 5.27197C3.69938 5.60954 4.41048 5.91943 5.41211 6.20166C6.41927 6.48389 7.20508 6.79655 7.76953 7.13965C8.33952 7.47721 8.76009 7.87288 9.03125 8.32666C9.30794 8.78044 9.44629 9.31445 9.44629 9.92871C9.44629 10.9082 9.06445 11.694 8.30078 12.2861C7.53711 12.8727 6.51611 13.166 5.23779 13.166C4.40771 13.166 3.63298 13.0083 2.91357 12.6929C2.19417 12.3719 1.63802 11.9347 1.24512 11.3813C0.857747 10.828 0.664062 10.1999 0.664062 9.49707H2.26611C2.26611 10.2275 2.53451 10.8058 3.07129 11.2319C3.61361 11.6525 4.33577 11.8628 5.23779 11.8628C6.07894 11.8628 6.72363 11.6912 7.17188 11.3481C7.62012 11.005 7.84424 10.5374 7.84424 9.94531C7.84424 9.35319 7.63672 8.89665 7.22168 8.57568C6.80664 8.24919 6.05404 7.92822 4.96387 7.61279ZM17.0508 12.1118C16.4531 12.8146 15.576 13.166 14.4194 13.166C13.4621 13.166 12.7316 12.8893 12.228 12.3359C11.73 11.777 11.4782 10.9525 11.4727 9.8623V4.01855H13.0083V9.8208C13.0083 11.1821 13.5617 11.8628 14.6685 11.8628C15.8416 11.8628 16.6219 11.4256 17.0093 10.5513V4.01855H18.5449V13H17.084L17.0508 12.1118ZM28.7227 8.60889C28.7227 9.97575 28.41 11.077 27.7847 11.9126C27.1593 12.7482 26.3127 13.166 25.2446 13.166C24.1545 13.166 23.2967 12.8201 22.6714 12.1284V16.4531H21.1357V4.01855H22.5386L22.6133 5.01465C23.2386 4.23991 24.1074 3.85254 25.2197 3.85254C26.2988 3.85254 27.151 4.25928 27.7764 5.07275C28.4072 5.88623 28.7227 7.0179 28.7227 8.46777V8.60889ZM27.187 8.43457C27.187 7.42188 26.9712 6.62223 26.5396 6.03564C26.1079 5.44906 25.5158 5.15576 24.7632 5.15576C23.8335 5.15576 23.1362 5.56803 22.6714 6.39258V10.6841C23.1307 11.5031 23.8335 11.9126 24.7798 11.9126C25.5158 11.9126 26.0996 11.6221 26.5312 11.041C26.9684 10.4544 27.187 9.58561 27.187 8.43457ZM38.5186 8.60889C38.5186 9.97575 38.2059 11.077 37.5806 11.9126C36.9552 12.7482 36.1086 13.166 35.0405 13.166C33.9504 13.166 33.0926 12.8201 32.4673 12.1284V16.4531H30.9316V4.01855H32.3345L32.4092 5.01465C33.0345 4.23991 33.9033 3.85254 35.0156 3.85254C36.0947 3.85254 36.9469 4.25928 37.5723 5.07275C38.2031 5.88623 38.5186 7.0179 38.5186 8.46777V8.60889ZM36.9829 8.43457C36.9829 7.42188 36.7671 6.62223 36.3354 6.03564C35.9038 5.44906 35.3117 5.15576 34.5591 5.15576C33.6294 5.15576 32.9321 5.56803 32.4673 6.39258V10.6841C32.9266 11.5031 33.6294 11.9126 34.5757 11.9126C35.3117 11.9126 35.8955 11.6221 36.3271 11.041C36.7643 10.4544 36.9829 9.58561 36.9829 8.43457ZM40.3208 8.42627C40.3208 7.54639 40.4924 6.75505 40.8354 6.05225C41.1841 5.34945 41.6655 4.80713 42.2798 4.42529C42.8996 4.04346 43.6051 3.85254 44.3965 3.85254C45.6195 3.85254 46.6073 4.27588 47.3599 5.12256C48.118 5.96924 48.4971 7.09538 48.4971 8.50098V8.60889C48.4971 9.48324 48.3283 10.269 47.9907 10.9663C47.6587 11.658 47.18 12.1976 46.5547 12.585C45.9349 12.9723 45.221 13.166 44.4131 13.166C43.1956 13.166 42.2078 12.7427 41.4497 11.896C40.6971 11.0493 40.3208 9.92871 40.3208 8.53418V8.42627ZM41.8647 8.60889C41.8647 9.60498 42.0944 10.4046 42.5537 11.0078C43.0186 11.611 43.6383 11.9126 44.4131 11.9126C45.1934 11.9126 45.8132 11.6082 46.2725 10.9995C46.7318 10.3853 46.9614 9.52751 46.9614 8.42627C46.9614 7.44124 46.7262 6.64437 46.2559 6.03564C45.791 5.42139 45.1712 5.11426 44.3965 5.11426C43.6383 5.11426 43.0269 5.41585 42.562 6.01904C42.0972 6.62223 41.8647 7.48551 41.8647 8.60889ZM55.0142 5.39648C54.7817 5.35775 54.5299 5.33838 54.2588 5.33838C53.2516 5.33838 52.5682 5.76725 52.2085 6.625V13H50.6729V4.01855H52.167L52.1919 5.05615C52.6955 4.25374 53.4093 3.85254 54.3335 3.85254C54.6323 3.85254 54.8592 3.89128 55.0142 3.96875V5.39648ZM59.1821 1.84375V4.01855H60.8589V5.20557H59.1821V10.7754C59.1821 11.1351 59.2568 11.4062 59.4062 11.5889C59.5557 11.766 59.8102 11.8545 60.1699 11.8545C60.347 11.8545 60.5905 11.8213 60.9004 11.7549V13C60.4964 13.1107 60.1035 13.166 59.7217 13.166C59.0355 13.166 58.5181 12.9585 58.1694 12.5435C57.8208 12.1284 57.6465 11.5391 57.6465 10.7754V5.20557H56.0112V4.01855H57.6465V1.84375H59.1821Z" fill="black"/>
</svg>
