<svg width="118" height="30" viewBox="0 0 118 30" fill="none" xmlns="http://www.w3.org/2000/svg">
<path d="M107.41 7L112 11.58L116.59 7L118 8.41L112 14.41L106 8.41L107.41 7Z" fill="black"/>
<path d="M4.00928 17.1899L4.2417 18.7837L4.58203 17.3477L6.97266 8.91406H8.31738L10.6499 17.3477L10.9819 18.8086L11.2393 17.1816L13.1152 8.91406H14.7173L11.7871 21H10.3345L7.84424 12.1929L7.65332 11.2715L7.4624 12.1929L4.88086 21H3.42822L0.506348 8.91406H2.1001L4.00928 17.1899ZM18.0386 13.106C18.7192 12.2703 19.6047 11.8525 20.6948 11.8525C22.5929 11.8525 23.5503 12.9233 23.5669 15.0649V21H22.0312V15.0566C22.0257 14.4092 21.8763 13.9305 21.583 13.6206C21.2952 13.3107 20.8442 13.1558 20.23 13.1558C19.7319 13.1558 19.2948 13.2886 18.9185 13.5542C18.5422 13.8198 18.2489 14.1685 18.0386 14.6001V21H16.5029V8.25H18.0386V13.106ZM25.7095 16.4263C25.7095 15.5464 25.881 14.755 26.2241 14.0522C26.5728 13.3494 27.0542 12.8071 27.6685 12.4253C28.2882 12.0435 28.9938 11.8525 29.7852 11.8525C31.0081 11.8525 31.9959 12.2759 32.7485 13.1226C33.5067 13.9692 33.8857 15.0954 33.8857 16.501V16.6089C33.8857 17.4832 33.717 18.269 33.3794 18.9663C33.0474 19.658 32.5687 20.1976 31.9434 20.585C31.3236 20.9723 30.6097 21.166 29.8018 21.166C28.5843 21.166 27.5965 20.7427 26.8384 19.896C26.0858 19.0493 25.7095 17.9287 25.7095 16.5342V16.4263ZM27.2534 16.6089C27.2534 17.605 27.4831 18.4046 27.9424 19.0078C28.4072 19.611 29.027 19.9126 29.8018 19.9126C30.582 19.9126 31.2018 19.6082 31.6611 18.9995C32.1204 18.3853 32.3501 17.5275 32.3501 16.4263C32.3501 15.4412 32.1149 14.6444 31.6445 14.0356C31.1797 13.4214 30.5599 13.1143 29.7852 13.1143C29.027 13.1143 28.4155 13.4159 27.9507 14.019C27.4858 14.6222 27.2534 15.4855 27.2534 16.6089ZM48.4805 18.8833L50.207 12.0186H51.7427L49.1279 21H47.8828L45.6997 14.1934L43.5747 21H42.3296L39.7231 12.0186H41.2505L43.0186 18.7422L45.1104 12.0186H46.3472L48.4805 18.8833ZM57.2886 21.166C56.0711 21.166 55.0806 20.7676 54.3169 19.9707C53.5532 19.1683 53.1714 18.0975 53.1714 16.7583V16.4761C53.1714 15.5851 53.3402 14.791 53.6777 14.0938C54.0208 13.391 54.4967 12.8431 55.1055 12.4502C55.7197 12.0518 56.3838 11.8525 57.0977 11.8525C58.2653 11.8525 59.1729 12.2371 59.8203 13.0063C60.4678 13.7756 60.7915 14.8768 60.7915 16.3101V16.9492H54.707C54.7292 17.8346 54.9865 18.5513 55.479 19.0991C55.9771 19.6414 56.6079 19.9126 57.3716 19.9126C57.9139 19.9126 58.3732 19.8019 58.7495 19.5806C59.1258 19.3592 59.4551 19.0659 59.7373 18.7007L60.6753 19.4312C59.9227 20.5877 58.7938 21.166 57.2886 21.166ZM57.0977 13.1143C56.4779 13.1143 55.9577 13.3411 55.5371 13.7949C55.1165 14.2432 54.8564 14.874 54.7568 15.6875H59.2559V15.5713C59.2116 14.791 59.0013 14.1878 58.625 13.7617C58.2487 13.3301 57.7396 13.1143 57.0977 13.1143ZM72.8379 21C72.7493 20.8229 72.6774 20.5075 72.6221 20.0537C71.9082 20.7952 71.056 21.166 70.0654 21.166C69.18 21.166 68.4523 20.917 67.8823 20.4189C67.3179 19.9154 67.0356 19.279 67.0356 18.5098C67.0356 17.5745 67.3898 16.8496 68.0981 16.335C68.812 15.8148 69.8136 15.5547 71.103 15.5547H72.5972V14.8491C72.5972 14.3123 72.4367 13.8862 72.1157 13.5708C71.7948 13.2498 71.3216 13.0894 70.6963 13.0894C70.1484 13.0894 69.6891 13.2277 69.3184 13.5044C68.9476 13.7811 68.7622 14.1159 68.7622 14.5088H67.2183C67.2183 14.0605 67.376 13.6289 67.6914 13.2139C68.0124 12.7933 68.444 12.4613 68.9863 12.2178C69.5342 11.9743 70.1346 11.8525 70.7876 11.8525C71.8224 11.8525 72.6331 12.1126 73.2197 12.6328C73.8063 13.1475 74.1107 13.8586 74.1328 14.7661V18.8999C74.1328 19.7244 74.238 20.3802 74.4482 20.8672V21H72.8379ZM70.2896 19.8296C70.771 19.8296 71.2275 19.7051 71.6592 19.4561C72.0908 19.207 72.4035 18.8833 72.5972 18.4849V16.6421H71.3936C69.512 16.6421 68.5713 17.1927 68.5713 18.2939C68.5713 18.7754 68.7318 19.1517 69.0527 19.4229C69.3737 19.694 69.786 19.8296 70.2896 19.8296ZM81.1313 13.3965C80.8989 13.3577 80.6471 13.3384 80.376 13.3384C79.3688 13.3384 78.6854 13.7673 78.3257 14.625V21H76.79V12.0186H78.2842L78.3091 13.0562C78.8127 12.2537 79.5265 11.8525 80.4507 11.8525C80.7495 11.8525 80.9764 11.8913 81.1313 11.9688V13.3965ZM86.3618 21.166C85.1444 21.166 84.1538 20.7676 83.3901 19.9707C82.6265 19.1683 82.2446 18.0975 82.2446 16.7583V16.4761C82.2446 15.5851 82.4134 14.791 82.751 14.0938C83.0941 13.391 83.57 12.8431 84.1787 12.4502C84.793 12.0518 85.457 11.8525 86.1709 11.8525C87.3385 11.8525 88.2461 12.2371 88.8936 13.0063C89.541 13.7756 89.8647 14.8768 89.8647 16.3101V16.9492H83.7803C83.8024 17.8346 84.0597 18.5513 84.5522 19.0991C85.0503 19.6414 85.6812 19.9126 86.4448 19.9126C86.9871 19.9126 87.4465 19.8019 87.8228 19.5806C88.1991 19.3592 88.5283 19.0659 88.8105 18.7007L89.7485 19.4312C88.9959 20.5877 87.867 21.166 86.3618 21.166ZM86.1709 13.1143C85.5511 13.1143 85.0309 13.3411 84.6104 13.7949C84.1898 14.2432 83.9297 14.874 83.8301 15.6875H88.3291V15.5713C88.2848 14.791 88.0745 14.1878 87.6982 13.7617C87.3219 13.3301 86.8128 13.1143 86.1709 13.1143Z" fill="black"/>
</svg>
